<svg width="54" height="54" fill="none" xmlns="http://www.w3.org/2000/svg">
    <g clip-path="url(#clip0)" fill="#11C0AB">
        <path d="M44.179 36.286l-5.787-2.014a1.126 1.126 0 00-1.2.302C34.355 37.67 30.736 39.375 27 39.375c-3.735 0-7.355-1.706-10.192-4.801a1.13 1.13 0 00-1.2-.302l-5.787 2.014A14.636 14.636 0 000 50.098v1.652c0 .621.504 1.125 1.125 1.125h51.75c.621 0 1.125-.504 1.125-1.125v-1.652a14.632 14.632 0 00-9.821-13.812zm7.571 14.339H2.25v-.527c0-5.262 3.339-9.96 8.31-11.688l5.102-1.776c3.19 3.225 7.191 4.99 11.338 4.99 4.147 0 8.147-1.765 11.338-4.99l5.103 1.776a12.384 12.384 0 018.309 11.688v.527z"/>
        <path d="M40.493 14.918c.005-.097.007-.196.007-.293 0-7.445-6.055-13.5-13.5-13.5s-13.5 6.055-13.5 13.5c0 .097.002.196.007.293-1.341.733-2.257 2.783-2.257 5.332 0 3.13 1.382 5.508 3.236 5.62C16.53 32.648 21.456 37.126 27 37.126s10.47-4.477 12.514-11.255c1.854-.112 3.236-2.49 3.236-5.62 0-2.55-.916-4.599-2.257-5.332zm-1.188 8.658a1.128 1.128 0 00-1.017-.086c-.33.135-.578.42-.666.77C36.047 30.608 31.78 34.874 27 34.874s-9.047-4.266-10.622-10.616c-.088-.348-.37-.607-.702-.744a1.023 1.023 0 00-.396-.075c-.23 0-.464.066-.655.185-.281 0-1.125-1.197-1.125-3.375 0-2.063.758-3.245 1.075-3.366a1.166 1.166 0 00.943-.32c.239-.24.358-.575.322-.91l-.031-.282c-.027-.248-.06-.493-.06-.747 0-6.203 5.048-11.25 11.251-11.25 6.203 0 11.25 5.047 11.25 11.25 0 .254-.032.5-.059.745l-.031.281c-.034.338.083.673.322.911.24.241.576.354.909.326l.034-.004c.317.121 1.075 1.303 1.075 3.366 0 2.178-.826 3.375-1.195 3.326z"/>
        <path d="M27 10.125c-2.65 0-4.5 1.85-4.5 4.5a1.125 1.125 0 002.25 0c0-2.03 1.573-2.25 2.25-2.25s2.25.22 2.25 2.25c0 1.888-.416 2.75-1.712 3.54-2.502 1.53-2.92 3.552-2.774 4.506.085.553.558.934 1.102.934.045 0 .092-.005.14-.01.6-.069 1.034-.625.985-1.23-.002-.047-.074-1.183 1.721-2.28 1.98-1.21 2.788-2.791 2.788-5.46 0-2.65-1.85-4.5-4.5-4.5zM25.875 28.125a1.125 1.125 0 100-2.25 1.125 1.125 0 000 2.25z"/>
    </g>
    <defs>
        <clipPath id="clip0">
            <path fill="#fff" d="M0 0h54v54H0z"/>
        </clipPath>
    </defs>
</svg>
