<svg width="62" height="62" fill="none" xmlns="http://www.w3.org/2000/svg">
    <path d="M56.724 14.104c-2.537-3.382-8.2-4.317-15.607-2.605-.16-.381-.323-.755-.493-1.12a3.873 3.873 0 00-4.323-6.21C34.641 2.69 32.86 1.938 31 1.938c-2.136 0-4.164.985-6.027 2.928-1.561 1.628-2.934 3.858-4.09 6.633-7.408-1.712-13.07-.777-15.607 2.605C2.391 17.95 4.041 24.23 9.68 31c-.308.37-.605.74-.893 1.11a3.873 3.873 0 00-3.832 6.413c-1.546 3.796-1.439 7.026.321 9.372 1.707 2.276 4.827 3.444 8.942 3.444 2.002 0 4.24-.278 6.665-.838 1.156 2.775 2.529 5.004 4.09 6.632 1.863 1.944 3.891 2.93 6.027 2.93s4.164-.986 6.027-2.93c1.56-1.627 2.934-3.856 4.09-6.63.518.12 1.03.226 1.535.32a3.875 3.875 0 007.638.36c2.894-.394 5.11-1.52 6.434-3.287C59.609 44.05 57.959 37.77 52.32 31c5.639-6.77 7.29-13.05 4.404-16.896zm-1.55 1.162c2.245 2.992.651 8.397-4.145 14.252a56.286 56.286 0 00-6.962-6.405c-.455-3.525-1.226-6.877-2.25-9.786 6.407-1.43 11.358-.725 13.357 1.94zM39.928 48.202a50.013 50.013 0 01-6.674-2.384 68.702 68.702 0 008.612-5.28 44.59 44.59 0 01-1.937 7.664zm-17.857 0a44.622 44.622 0 01-1.938-7.664 68.655 68.655 0 008.612 5.28 50.01 50.01 0 01-6.674 2.384zm0-34.404a50.006 50.006 0 016.674 2.383 68.692 68.692 0 00-8.612 5.28 44.589 44.589 0 011.938-7.663zm1.627 26.837a66.687 66.687 0 01-3.939-2.784 61.212 61.212 0 010-13.702A66.675 66.675 0 0131 17.22a65.95 65.95 0 017.301 4.144 66.608 66.608 0 013.94 2.784c.257 2.275.385 4.562.384 6.851a60.738 60.738 0 01-.385 6.851A66.688 66.688 0 0131 44.779a65.95 65.95 0 01-7.301-4.144zm-6.05-4.467A52.296 52.296 0 0112.244 31a52.35 52.35 0 015.405-5.168 63.408 63.408 0 000 10.336zm22.28-22.37a44.602 44.602 0 011.938 7.664 68.665 68.665 0 00-8.612-5.28 50.03 50.03 0 016.675-2.384zm4.423 12.034A52.291 52.291 0 0149.756 31a52.35 52.35 0 01-5.405 5.168 63.408 63.408 0 000-10.336zM39.72 7.75a1.938 1.938 0 11-3.875 0 1.938 1.938 0 013.875 0zM31 3.875c1.268 0 2.518.504 3.726 1.495a3.873 3.873 0 004.25 6.066c.082.18.163.363.242.548A53.784 53.784 0 0031 15.074a53.781 53.781 0 00-8.22-3.09c2.21-5.17 5.173-8.109 8.22-8.109zM6.826 15.266c1.999-2.664 6.95-3.368 13.357-1.94-1.023 2.91-1.794 6.26-2.25 9.786a56.362 56.362 0 00-6.962 6.406c-4.796-5.855-6.39-11.26-4.145-14.252zm.924 18.64a1.938 1.938 0 110 3.875 1.938 1.938 0 010-3.875zm-.924 12.828c-1.569-2.093-1.065-4.917-.196-7.181a3.873 3.873 0 003.848-6.458c.16-.205.325-.41.493-.614a56.28 56.28 0 006.962 6.406c.455 3.526 1.226 6.877 2.25 9.786-6.407 1.43-11.358.725-13.357-1.94zM31 58.125c-3.047 0-6.01-2.94-8.22-8.109a53.77 53.77 0 008.22-3.09 53.791 53.791 0 008.22 3.09c-2.21 5.17-5.172 8.109-8.22 8.109zm15.5-5.813a1.937 1.937 0 110-3.874 1.937 1.937 0 010 3.874zm8.674-5.578c-.981 1.31-2.69 2.166-4.97 2.505a3.875 3.875 0 00-7.287-.338 33.671 33.671 0 01-1.1-.228c1.024-2.91 1.795-6.26 2.25-9.785a56.347 56.347 0 006.962-6.406c4.796 5.855 6.39 11.26 4.145 14.252z" fill="#11C0AB"/>
    <path d="M31 23.25A7.75 7.75 0 1038.75 31 7.759 7.759 0 0031 23.25zm0 13.563A5.812 5.812 0 1136.813 31 5.82 5.82 0 0131 36.813z" fill="#11C0AB"/>
</svg>
