<svg width="17" height="17" fill="none" xmlns="http://www.w3.org/2000/svg">
    <path d="M14.809 1.328H13.28V.531a.531.531 0 10-1.062 0v.797H4.78V.531a.531.531 0 10-1.062 0v.797H2.19A2.194 2.194 0 000 3.52v11.289C0 16.017.983 17 2.191 17H14.81A2.194 2.194 0 0017 14.809V3.519a2.194 2.194 0 00-2.191-2.19zM2.19 2.391H3.72v.53a.531.531 0 001.062 0v-.53h7.438v.53a.531.531 0 101.062 0v-.53h1.528a1.13 1.13 0 011.129 1.129V4.78H1.062V3.52a1.13 1.13 0 011.13-1.13zM14.81 15.937H2.19a1.13 1.13 0 01-1.128-1.128V5.844h14.874v8.965a1.13 1.13 0 01-1.128 1.129z" fill="#11C0AB"/>
</svg>
