<svg width="62" height="62" fill="none" xmlns="http://www.w3.org/2000/svg">
    <path d="M61.031 29.067h-2.906a.968.968 0 00-.969.968v3.871h-1.945a.968.968 0 00-.969-.968H17.426a.968.968 0 00-.969.968h-.963v-.965a4.855 4.855 0 00-4.85-4.849c-.006 0-.012.004-.019.004H4.844V16.459a.968.968 0 00-.969-.968H.969a.968.968 0 00-.969.968v39.727c0 .535.433.968.969.968h2.906a.968.968 0 00.969-.968v-4.84h52.312v4.84c0 .535.433.968.969.968h2.906a.968.968 0 00.969-.968v-26.15a.968.968 0 00-.969-.97zm-3.875 6.777v1.943h-1.945v-1.943h1.945zm-38.761 7.752v-8.72h.98v6.78c0 .536.433.97.969.97h31a.968.968 0 00.968-.97v-6.78h.962v8.72h-34.88zm31.98-2.908H21.312v-5.813h29.063v5.813zm-33.918-2.9H4.844v-1.944h11.613v1.943zm-5.812-7.755c.005 0 .007-.003.012-.003 1.6.008 2.9 1.311 2.9 2.911v.965H4.844v-3.873h5.8zM1.938 55.217V17.428h.968v11.607c0 .011-.006.019-.006.029 0 .01.006.019.006.029v26.124h-.969zm2.906-5.809v-9.683h11.613v4.84c0 .535.433.968.969.968h36.816a.968.968 0 00.969-.968v-4.84h1.945v9.683H4.844zm55.218 5.809h-.968V31.004h.968v24.213z" fill="#11C0AB"/>
    <path d="M33.91 4.846c-5.876 0-10.657 4.78-10.657 10.656 0 5.875 4.78 10.656 10.656 10.656s10.656-4.78 10.656-10.656S39.785 4.846 33.91 4.846zm0 19.375c-4.809 0-8.72-3.911-8.72-8.719s3.911-8.719 8.72-8.719c4.807 0 8.718 3.911 8.718 8.719s-3.91 8.719-8.719 8.719z" fill="#11C0AB"/>
    <path d="M37.78 14.531h-2.907v-2.906a.968.968 0 10-1.937 0v2.906h-2.907a.968.968 0 100 1.938h2.907v2.906a.968.968 0 101.937 0v-2.906h2.906a.968.968 0 100-1.938z" fill="#11C0AB"/>
</svg>
