<svg width="62" height="62" fill="none" xmlns="http://www.w3.org/2000/svg">
    <g clip-path="url(#clip0)" fill="#11C0AB">
        <path d="M31.227 9.473a17.564 17.564 0 00-17.713 17.025 17.352 17.352 0 003.213 10.578 19.442 19.442 0 013.506 11.338v4.67a.847.847 0 00.3.648l3.083 2.607v3.18A2.484 2.484 0 0026.1 62H35.9a2.484 2.484 0 002.482-2.481v-3.18l3.082-2.608a.846.846 0 00.3-.647v-4.672c.002-4.11 1.264-8.123 3.618-11.494A17.493 17.493 0 0031.227 9.473zM37.225 55.1H24.777l-2.448-2.07h17.344l-2.448 2.07zm2.846-3.766H21.929v-2.074h18.142v2.074zm-3.383 8.186a.787.787 0 01-.786.786h-9.803a.788.788 0 01-.787-.786v-2.725h11.376v2.725zm7.302-23.569a21.779 21.779 0 00-3.903 11.614H21.914a21.01 21.01 0 00-3.804-11.473 15.676 15.676 0 01-2.9-9.55 15.856 15.856 0 0115.794-15.377h.2a15.798 15.798 0 0112.788 24.785l-.002.001z"/>
        <path d="M40.321 26.971a9.64 9.64 0 00-1.118-2.712l1.111-1.112a.848.848 0 000-1.199l-2.017-2.017a.847.847 0 00-1.2 0l-1.104 1.104a9.635 9.635 0 00-2.716-1.13v-1.559a.848.848 0 00-.848-.848h-2.856a.848.848 0 00-.847.848v1.56a9.637 9.637 0 00-2.719 1.13l-1.105-1.106a.846.846 0 00-1.2 0l-2.017 2.018a.846.846 0 000 1.198l1.112 1.112a9.64 9.64 0 00-1.119 2.713h-1.576a.847.847 0 00-.848.847v2.853a.848.848 0 00.848.848h1.59a9.62 9.62 0 001.123 2.694l-1.13 1.13a.846.846 0 000 1.2l2.018 2.017a.872.872 0 001.199 0l1.136-1.137c.834.504 1.74.88 2.685 1.111v1.61a.847.847 0 00.848.847h2.854a.847.847 0 00.847-.848v-1.608a9.632 9.632 0 002.688-1.112l1.136 1.137a.849.849 0 001.2 0l2.017-2.018a.846.846 0 000-1.199l-1.127-1.13a9.619 9.619 0 001.124-2.694h1.588a.848.848 0 00.848-.847v-2.853a.848.848 0 00-.848-.848h-1.577zm.73 2.853h-1.432a.847.847 0 00-.836.708 7.9 7.9 0 01-1.376 3.293.847.847 0 00.089 1.098l1.02 1.018-.818.818-1.025-1.025a.848.848 0 00-1.092-.09 7.902 7.902 0 01-3.294 1.36.847.847 0 00-.706.84v1.452H30.42v-1.453a.847.847 0 00-.708-.837 7.902 7.902 0 01-3.294-1.36.847.847 0 00-1.092.09l-1.024 1.025-.819-.819 1.023-1.019a.847.847 0 00.088-1.095 7.9 7.9 0 01-1.376-3.294.848.848 0 00-.836-.707h-1.432v-1.158h1.423a.848.848 0 00.837-.712 7.9 7.9 0 011.365-3.315.847.847 0 00-.09-1.092l-1-1 .818-.819.996.996a.848.848 0 001.095.089 7.885 7.885 0 013.318-1.38.848.848 0 00.708-.84v-1.404h1.162v1.405a.848.848 0 00.71.836c1.197.2 2.332.672 3.316 1.381a.847.847 0 001.095-.089l.996-.995.819.818-1 1a.848.848 0 00-.09 1.092 7.899 7.899 0 011.364 3.315.848.848 0 00.837.712h1.423v1.157z"/>
        <path d="M31 23.262a5.958 5.958 0 105.958 5.958A5.966 5.966 0 0031 23.262zm0 10.223a4.262 4.262 0 110-8.525 4.262 4.262 0 010 8.526zM31 6.58a.848.848 0 00.848-.848V.848a.848.848 0 00-1.696 0v4.884a.848.848 0 00.848.847zM51.722 9.08l-3.454 3.453a.848.848 0 001.199 1.2l3.453-3.454a.847.847 0 10-1.198-1.2zM61.152 30.152h-4.884a.847.847 0 100 1.696h4.884a.848.848 0 000-1.696zM5.732 30.152H.848a.848.848 0 100 1.696h4.884a.848.848 0 000-1.696zM13.732 12.533L10.278 9.08a.848.848 0 10-1.198 1.199l3.453 3.453a.848.848 0 001.199-1.199z"/>
    </g>
    <defs>
        <clipPath id="clip0">
            <path fill="#fff" d="M0 0h62v62H0z"/>
        </clipPath>
    </defs>
</svg>
