<svg width="57" height="63" fill="none" xmlns="http://www.w3.org/2000/svg">
    <path d="M9.814 33.35h4.884a1.963 1.963 0 000-3.927H9.814a1.963 1.963 0 000 3.926zM9.814 25.505h4.884a1.963 1.963 0 000-3.926H9.814a1.963 1.963 0 000 3.926zM9.814 17.66h4.884a1.963 1.963 0 000-3.925H9.814a1.963 1.963 0 000 3.925z" fill="#fff" fill-opacity=".3"/>
    <path d="M54.569 11.512h-2.56v-1.295a1.963 1.963 0 10-3.927 0v1.295h-2.566a1.963 1.963 0 00-1.963 1.963v16.011c0 1.084.879 1.963 1.963 1.963h2.566v31.625h-26.49V60.83h5.422a1.963 1.963 0 00.654-3.812V53.3h9.644a1.963 1.963 0 001.963-1.963V7.854a1.963 1.963 0 00-1.963-1.963H26.824C26.155 2.536 23.187 0 19.637 0c-3.55 0-6.518 2.536-7.187 5.89H1.963A1.963 1.963 0 000 7.855v43.483C0 52.42.879 53.3 1.963 53.3h9.643v3.717a1.962 1.962 0 00.654 3.812h5.406v4.208c0 1.084.879 1.963 1.963 1.963h30.416a1.963 1.963 0 001.963-1.963V31.45h2.56a1.963 1.963 0 001.964-1.963v-16.01a1.963 1.963 0 00-1.963-1.964zM19.637 3.926c1.364 0 2.542.805 3.085 1.965h-6.17a3.407 3.407 0 013.085-1.965zm15.712 5.89v27.451H3.926V9.817h31.423zM3.926 49.374v-8.18h31.423v8.18h-9.644a1.963 1.963 0 00-1.962 1.963v5.566h-8.211v-5.566a1.963 1.963 0 00-1.963-1.963H3.926zm48.68-21.85h-5.127V15.437h5.127v12.085z" fill="#fff" fill-opacity=".3"/>
</svg>
