<svg width="25" height="25" fill="none" xmlns="http://www.w3.org/2000/svg">
    <path d="M23.322 11.276a5.824 5.824 0 00-3.925-1.749 5.371 5.371 0 01-.012-.396c0-.719.546-2.913.89-4.128l.353-1.243H16.35l-.286.461c-.114.183-2.784 4.56-2.784 11.16 0 3.23 2.629 5.86 5.86 5.86 3.23 0 5.859-2.63 5.859-5.86a5.826 5.826 0 00-1.678-4.105zm-4.181 8.011a3.91 3.91 0 01-3.907-3.906c0-4.85 1.604-8.44 2.237-9.668h.593c-.281 1.103-.632 2.639-.632 3.418 0 .618.046 1.115.27 1.53.2.369.617.809 1.473.814h.043c2.111.042 3.829 1.793 3.829 3.906a3.91 3.91 0 01-3.906 3.906zM10.04 11.276a5.824 5.824 0 00-3.924-1.749 5.349 5.349 0 01-.012-.396c0-.719.546-2.913.89-4.128l.353-1.243H3.07l-.286.461C2.67 4.404 0 8.781 0 15.381c0 3.23 2.629 5.86 5.86 5.86 3.23 0 5.859-2.63 5.859-5.86a5.825 5.825 0 00-1.679-4.105zm-4.18 8.011a3.91 3.91 0 01-3.907-3.906c0-4.85 1.603-8.44 2.237-9.668h.592c-.28 1.103-.632 2.639-.632 3.418 0 .618.046 1.115.27 1.53.2.369.618.809 1.474.814h.043c2.111.042 3.829 1.793 3.829 3.906a3.91 3.91 0 01-3.907 3.906z" fill="#11C0AB"/>
</svg>
