<svg width="68" height="68" fill="none" xmlns="http://www.w3.org/2000/svg">
    <g clip-path="url(#clip0)" fill="#11C0AB">
        <path d="M18.183 23.331l1.707 1.102a.994.994 0 001.211-.101l4.044-3.69a.996.996 0 00-1.342-1.471l-3.478 3.172-1.061-.686a.996.996 0 00-1.08 1.674zM28.709 22.748h14.145a.996.996 0 100-1.993H28.709a.996.996 0 100 1.993zM28.709 31.631h14.145a.996.996 0 100-1.992H28.709a.996.996 0 100 1.992zM28.709 40.516h11.553a.996.996 0 100-1.993H28.71a.996.996 0 100 1.993zM28.709 49.403h4.346a.996.996 0 100-1.992H28.71a.996.996 0 100 1.992zM23.803 27.368l-3.479 3.173-1.062-.683a.996.996 0 00-1.078 1.675l1.707 1.098a.994.994 0 001.21-.102l4.044-3.69a.996.996 0 00-1.342-1.471zM18.183 39.729l1.707 1.102a.994.994 0 001.211-.102l4.044-3.689a.996.996 0 00-1.342-1.472l-3.478 3.173-1.061-.686a.996.996 0 00-1.08 1.674zM18.183 47.926l1.707 1.101a.994.994 0 001.211-.1l4.044-3.69a.996.996 0 10-1.342-1.472l-3.477 3.173-1.062-.686a.996.996 0 10-1.08 1.674zM54.467 51.392h-2.211V49.18c0-.776-.632-1.407-1.407-1.407h-4.093c-.776 0-1.407.631-1.407 1.407v2.212h-2.211c-.778 0-1.41.632-1.41 1.41v4.09c0 .777.632 1.41 1.41 1.41h2.211v2.211c0 .776.631 1.407 1.407 1.407h4.093c.776 0 1.407-.63 1.407-1.407v-2.211h2.211c.778 0 1.41-.633 1.41-1.41v-4.09c0-.778-.632-1.41-1.41-1.41zm-.581 4.918h-2.04c-.872 0-1.582.708-1.582 1.578v2.04h-2.922v-2.04c0-.87-.71-1.578-1.583-1.578h-2.04v-2.926h2.04c.873 0 1.582-.708 1.582-1.579v-2.04h2.922v2.04c0 .87.71 1.579 1.583 1.579h2.04v2.926z"/>
        <path d="M56.494 44.183V29.578a.996.996 0 10-1.992 0v13.415a13.049 13.049 0 00-3.277-1.075V12.244c0-.904-.737-1.639-1.642-1.639H43.67V7.33h9.863c.534 0 .968.432.968.964V30a.996.996 0 101.992 0V8.293a2.962 2.962 0 00-2.96-2.957h-9.969a1.707 1.707 0 00-1.6-1.124h-3.507a8.226 8.226 0 00-1.364-1.8A8.186 8.186 0 0031.267 0a8.17 8.17 0 00-5.824 2.413 8.26 8.26 0 00-1.367 1.8h-3.504a1.71 1.71 0 00-1.604 1.123H8.999a2.96 2.96 0 00-2.956 2.957v52.81a2.96 2.96 0 002.956 2.957h30.426A13.115 13.115 0 0048.803 68c7.253 0 13.154-5.901 13.154-13.155 0-4.383-2.156-8.271-5.463-10.662zM20.854 6.204h3.687l.034.001c.476.012.852-.218 1.052-.658l.01-.022a6.24 6.24 0 011.215-1.704 6.191 6.191 0 014.415-1.829c1.67 0 3.239.65 4.418 1.83.5.5.908 1.073 1.212 1.703l.006.013.014.029c.263.547.712.65 1.044.638h3.717v5.92H20.855v-5.92zM9 62.068a.965.965 0 01-.964-.964V8.293c0-.532.433-.965.964-.965h9.863v3.277H12.95a1.64 1.64 0 00-1.638 1.639V41a.996.996 0 101.992 0V12.598h5.57a1.71 1.71 0 001.698 1.52h21.393c.878 0 1.602-.667 1.695-1.52h5.573v29.104a13.367 13.367 0 00-.43-.008c-7.254 0-13.155 5.9-13.155 13.15 0 .665.05 1.317.145 1.955H13.304V41.633a.996.996 0 10-1.992 0v15.52a1.64 1.64 0 001.638 1.638h23.303c.369 1.171.898 2.272 1.56 3.277H9zm39.803 3.94c-6.155 0-11.162-5.008-11.162-11.163 0-6.153 5.007-11.16 11.163-11.16 6.155 0 11.162 5.007 11.162 11.16 0 6.155-5.007 11.163-11.163 11.163z"/>
    </g>
    <defs>
        <clipPath id="clip0">
            <path fill="#fff" d="M0 0h68v68H0z"/>
        </clipPath>
    </defs>
</svg>
