<svg width="35" height="35" fill="none" xmlns="http://www.w3.org/2000/svg">
    <path d="M23.343 23.125c3.724-5.844 3.256-5.115 3.364-5.267a11.195 11.195 0 002.072-6.51C28.78 5.126 23.73 0 17.5 0 11.29 0 6.22 5.115 6.22 11.348c0 2.344.732 4.654 2.133 6.593l3.304 5.184c-3.533.543-9.538 2.16-9.538 5.723 0 1.298.848 3.149 4.885 4.59C9.824 34.447 13.551 35 17.5 35c7.384 0 15.38-2.083 15.38-6.152 0-3.563-5.997-5.179-9.537-5.723zm-13.277-6.312a9.2 9.2 0 01-1.794-5.465c0-5.129 4.129-9.297 9.228-9.297 5.089 0 9.229 4.17 9.229 9.297a9.155 9.155 0 01-1.685 5.31c-.099.13.416-.671-7.544 11.82l-7.434-11.665zM17.5 32.949c-8.066 0-13.33-2.37-13.33-4.101 0-1.163 2.705-3.076 8.698-3.822l3.767 5.91a1.025 1.025 0 001.73 0l3.766-5.91c5.994.746 8.7 2.659 8.7 3.822 0 1.716-5.218 4.101-13.331 4.101z" fill="#11C0AB"/>
    <path d="M17.5 6.22a5.133 5.133 0 00-5.127 5.128c0 2.827 2.3 5.127 5.127 5.127s5.127-2.3 5.127-5.127-2.3-5.127-5.127-5.127zm0 8.204a3.08 3.08 0 01-3.076-3.076A3.08 3.08 0 0117.5 8.27a3.08 3.08 0 013.076 3.077 3.08 3.08 0 01-3.076 3.076z" fill="#11C0AB"/>
</svg>
