<svg width="65" height="65" fill="none" xmlns="http://www.w3.org/2000/svg">
    <circle cx="3.611" cy="3.611" r="3.611" fill="#11C0AB" fill-opacity=".1"/>
    <circle cx="3.611" cy="18.056" r="3.611" fill="#11C0AB" fill-opacity=".1"/>
    <circle cx="3.611" cy="32.5" r="3.611" fill="#11C0AB" fill-opacity=".1"/>
    <circle cx="3.611" cy="46.944" r="3.611" fill="#11C0AB" fill-opacity=".1"/>
    <circle cx="3.611" cy="61.389" r="3.611" fill="#11C0AB" fill-opacity=".1"/>
    <circle cx="32.5" cy="3.611" r="3.611" fill="#11C0AB" fill-opacity=".1"/>
    <circle cx="32.5" cy="18.056" r="3.611" fill="#11C0AB" fill-opacity=".1"/>
    <circle cx="32.5" cy="32.5" r="3.611" fill="#11C0AB" fill-opacity=".1"/>
    <circle cx="32.5" cy="46.944" r="3.611" fill="#11C0AB" fill-opacity=".1"/>
    <circle cx="32.5" cy="61.389" r="3.611" fill="#11C0AB" fill-opacity=".1"/>
    <circle cx="61.389" cy="3.611" r="3.611" fill="#11C0AB" fill-opacity=".1"/>
    <circle cx="61.389" cy="18.056" r="3.611" fill="#11C0AB" fill-opacity=".1"/>
    <circle cx="61.389" cy="32.5" r="3.611" fill="#11C0AB" fill-opacity=".1"/>
    <circle cx="61.389" cy="46.944" r="3.611" fill="#11C0AB" fill-opacity=".1"/>
    <circle cx="61.389" cy="61.389" r="3.611" fill="#11C0AB" fill-opacity=".1"/>
    <circle cx="18.056" cy="3.611" r="3.611" fill="#11C0AB" fill-opacity=".1"/>
    <circle cx="18.056" cy="18.056" r="3.611" fill="#11C0AB" fill-opacity=".1"/>
    <circle cx="18.056" cy="32.5" r="3.611" fill="#11C0AB" fill-opacity=".1"/>
    <circle cx="18.056" cy="46.944" r="3.611" fill="#11C0AB" fill-opacity=".1"/>
    <circle cx="18.056" cy="61.389" r="3.611" fill="#11C0AB" fill-opacity=".1"/>
    <circle cx="46.944" cy="3.611" r="3.611" fill="#11C0AB" fill-opacity=".1"/>
    <circle cx="46.944" cy="18.056" r="3.611" fill="#11C0AB" fill-opacity=".1"/>
    <circle cx="46.944" cy="32.5" r="3.611" fill="#11C0AB" fill-opacity=".1"/>
    <circle cx="46.944" cy="46.944" r="3.611" fill="#11C0AB" fill-opacity=".1"/>
    <circle cx="46.944" cy="61.389" r="3.611" fill="#11C0AB" fill-opacity=".1"/>
</svg>
