<svg width="67" height="67" fill="none" xmlns="http://www.w3.org/2000/svg">
    <path d="M55.877 34.285h-5.889v-5.888a1.963 1.963 0 00-1.963-1.963h-7.851a1.963 1.963 0 00-1.963 1.962v5.89h-5.889a1.963 1.963 0 00-1.963 1.962V44.1c0 1.084.88 1.962 1.963 1.962h5.889v5.89c0 1.083.879 1.962 1.963 1.962h7.851a1.963 1.963 0 001.963-1.963v-5.889h5.889A1.963 1.963 0 0057.84 44.1v-7.852a1.963 1.963 0 00-1.963-1.963zm-1.963 7.852h-5.889a1.963 1.963 0 00-1.962 1.963v5.888h-3.926V44.1a1.963 1.963 0 00-1.963-1.963h-5.889V38.21h5.889a1.963 1.963 0 001.963-1.963v-5.889h3.925v5.889c0 1.084.88 1.963 1.963 1.963h5.89v3.926z" fill="#fff" fill-opacity=".3"/>
    <path d="M64.912 24.67l-3.146-4.72v-5.555h1.962a1.963 1.963 0 001.963-1.963V5.889A5.895 5.895 0 0059.803 0H28.397a5.895 5.895 0 00-5.89 5.889v6.543c0 1.084.88 1.963 1.964 1.963h1.963v5.556l-3.147 4.72a12.393 12.393 0 00-2.088 6.895v15.805H9.814C4.403 47.371 0 51.774 0 57.185 0 62.597 4.403 67 9.814 67h49.989C63.77 67 67 63.771 67 59.803V31.566c0-2.462-.722-4.847-2.088-6.896zM57.84 3.926h1.963c1.082 0 1.963.88 1.963 1.963v4.58H57.84V3.926zm-7.852 0h3.926v6.543h-3.926V3.926zm7.852 10.469v4.187H30.36v-4.188h27.48zM42.137 3.925h3.925v6.544h-3.925V3.926zm-7.852 0h3.926v6.544h-3.926V3.926zM26.434 5.89c0-1.083.88-1.963 1.962-1.963h1.963v6.543h-3.925v-4.58zm-10.73 57.185h-5.89a5.895 5.895 0 01-5.888-5.889 5.895 5.895 0 015.888-5.888h5.89v11.777zm9.814 0h-5.89V51.297h5.89a5.895 5.895 0 015.888 5.889 5.895 5.895 0 01-5.888 5.888zm37.556-3.271a3.275 3.275 0 01-3.271 3.271h-26.44a9.763 9.763 0 001.969-5.889c0-5.411-4.403-9.814-9.814-9.814h-.393V31.566c0-1.685.494-3.316 1.428-4.718l2.894-4.34h29.305l2.894 4.34a8.477 8.477 0 011.428 4.718v28.237z" fill="#fff" fill-opacity=".3"/>
</svg>
