<svg width="35" height="35" fill="none" xmlns="http://www.w3.org/2000/svg">
    <path d="M25.304 34.054H9.696a1.892 1.892 0 01-1.892-1.892V2.838A1.892 1.892 0 019.696.946h15.608a1.892 1.892 0 011.892 1.892v29.324a1.892 1.892 0 01-1.892 1.892zM9.696 2.302c-.25 0-.33.056-.433.159-.067.066-.171.126-.171.377v29.324c0 .251 0 .309.102.411.125.125.251.125.502.125h15.608c.251 0 .365-.022.468-.09.068-.103.068-.195.068-.446V2.838c0-.251-.034-.343-.137-.411-.068-.125-.148-.125-.399-.125H9.696z" fill="#11C0AB"/>
    <path d="M26.723 6.149H8.277a.473.473 0 110-.946h18.446a.473.473 0 010 .946zM26.723 27.905H8.277a.473.473 0 110-.946h18.446a.473.473 0 110 .946zM17.5 32.114a1.744 1.744 0 110-3.488 1.744 1.744 0 010 3.488zm0-2.542a.798.798 0 100 1.597.798.798 0 000-1.597zM19.392 4.275h-3.784a.473.473 0 010-.946h3.784a.473.473 0 010 .946z" fill="#11C0AB"/>
</svg>
