<?xml version="1.0" encoding="utf-8"?><svg xmlns="http://www.w3.org/2000/svg" xmlns:xlink="http://www.w3.org/1999/xlink"><symbol viewBox="0 0 79 79" id="24-hours" xmlns="http://www.w3.org/2000/svg"><path d="M61.741 20.25l13.53.986.986-13.53-4.637-.337-.388 5.323A39.438 39.438 0 0042.243 0c-21.78 0-39.5 17.72-39.5 39.5S20.463 79 42.243 79c13.17 0 25.435-6.551 32.808-17.525l-3.859-2.593c-6.507 9.686-17.33 15.469-28.948 15.469-19.218 0-34.852-15.634-34.852-34.851S23.026 4.649 42.243 4.649a34.797 34.797 0 0125.752 11.396l-5.916-.431-.338 4.637z" fill-opacity=".2"/><path d="M22.841 43.866c0-1.495 1.495-2.465 3.619-3.54 2.438-1.232 4.142-2.648 4.142-5.69 0-3.592-2.307-5.82-6.45-5.82-3.565 0-6.213 1.704-7.367 3.015l2.596 2.78c.943-.97 2.517-2.072 4.195-2.072 1.363 0 2.254.734 2.254 2.15 0 2.202-2.176 3.146-4.404 4.142-3.776 1.705-4.694 3.96-4.694 8.81h13.896v-3.775h-7.787zm21.211-3.906V29h-2.884l-8.652 10.96v3.748h7.341v3.907h4.195v-3.907h2.308V39.96h-2.308zm-3.723-.001h-3.644l3.644-4.667v4.667zm17.383-6.345c-2.019 0-3.775.944-4.772 2.57v-7.682h-4.195v19.14h4.195v-7.893c.525-1.468 1.914-2.438 2.91-2.438 1.207 0 1.993.813 1.993 2.596v7.735h4.195v-8.81c0-2.386-.63-5.218-4.326-5.218z" fill-opacity=".2"/></symbol><symbol viewBox="0 0 54 54" id="anonym" xmlns="http://www.w3.org/2000/svg"><g clip-path="url(#bclip0)"><path d="M44.179 36.286l-5.787-2.014a1.126 1.126 0 00-1.2.302C34.355 37.67 30.736 39.375 27 39.375c-3.735 0-7.355-1.706-10.192-4.801a1.13 1.13 0 00-1.2-.302l-5.787 2.014A14.636 14.636 0 000 50.098v1.652c0 .621.504 1.125 1.125 1.125h51.75c.621 0 1.125-.504 1.125-1.125v-1.652a14.632 14.632 0 00-9.821-13.812zm7.571 14.339H2.25v-.527c0-5.262 3.339-9.96 8.31-11.688l5.102-1.776c3.19 3.225 7.191 4.99 11.338 4.99 4.147 0 8.147-1.765 11.338-4.99l5.103 1.776a12.384 12.384 0 018.309 11.688v.527z"/><path d="M40.493 14.918a5.73 5.73 0 00.007-.293c0-7.445-6.055-13.5-13.5-13.5s-13.5 6.055-13.5 13.5c0 .097.002.196.007.293-1.341.733-2.257 2.783-2.257 5.332 0 3.13 1.382 5.508 3.236 5.62C16.53 32.648 21.456 37.126 27 37.126s10.47-4.477 12.514-11.255c1.854-.112 3.236-2.49 3.236-5.62 0-2.55-.916-4.599-2.257-5.332zm-1.188 8.658a1.128 1.128 0 00-1.017-.086c-.33.135-.578.42-.666.77C36.047 30.608 31.78 34.874 27 34.874s-9.047-4.266-10.622-10.616c-.088-.348-.37-.607-.702-.744a1.023 1.023 0 00-.396-.075c-.23 0-.464.066-.655.185-.281 0-1.125-1.197-1.125-3.375 0-2.063.758-3.245 1.075-3.366a1.166 1.166 0 00.943-.32c.239-.24.358-.575.322-.91l-.031-.282c-.027-.248-.06-.493-.06-.747 0-6.203 5.048-11.25 11.251-11.25 6.203 0 11.25 5.047 11.25 11.25 0 .254-.032.5-.059.745l-.031.281a1.125 1.125 0 001.231 1.237l.034-.004c.317.121 1.075 1.303 1.075 3.366 0 2.178-.826 3.375-1.195 3.326z"/><path d="M27 10.125c-2.65 0-4.5 1.85-4.5 4.5a1.125 1.125 0 002.25 0c0-2.03 1.573-2.25 2.25-2.25s2.25.22 2.25 2.25c0 1.888-.416 2.75-1.712 3.54-2.502 1.53-2.92 3.552-2.774 4.506.085.553.558.934 1.102.934.045 0 .092-.005.14-.01.6-.069 1.034-.625.985-1.23-.002-.047-.074-1.183 1.721-2.28 1.98-1.21 2.788-2.791 2.788-5.46 0-2.65-1.85-4.5-4.5-4.5zm-1.125 18a1.125 1.125 0 100-2.25 1.125 1.125 0 000 2.25z"/></g><defs><clipPath id="bclip0"><path d="M0 0h54v54H0z"/></clipPath></defs></symbol><symbol viewBox="0 0 54 54" id="anonymous" xmlns="http://www.w3.org/2000/svg"><g clip-path="url(#cclip0)"><path d="M44.179 36.286l-5.787-2.014a1.126 1.126 0 00-1.2.302C34.355 37.67 30.736 39.375 27 39.375c-3.735 0-7.355-1.706-10.192-4.801a1.13 1.13 0 00-1.2-.302l-5.787 2.014A14.636 14.636 0 000 50.098v1.652c0 .621.504 1.125 1.125 1.125h51.75c.621 0 1.125-.504 1.125-1.125v-1.652a14.632 14.632 0 00-9.821-13.812zm7.571 14.339H2.25v-.527c0-5.262 3.339-9.96 8.31-11.688l5.102-1.776c3.19 3.225 7.191 4.99 11.338 4.99 4.147 0 8.147-1.765 11.338-4.99l5.103 1.776a12.384 12.384 0 018.309 11.688v.527z"/><path d="M40.493 14.918a5.73 5.73 0 00.007-.293c0-7.445-6.055-13.5-13.5-13.5s-13.5 6.055-13.5 13.5c0 .097.002.196.007.293-1.341.733-2.257 2.783-2.257 5.332 0 3.13 1.382 5.508 3.236 5.62C16.53 32.648 21.456 37.126 27 37.126s10.47-4.477 12.514-11.255c1.854-.112 3.236-2.49 3.236-5.62 0-2.55-.916-4.599-2.257-5.332zm-1.188 8.658a1.128 1.128 0 00-1.017-.086c-.33.135-.578.42-.666.77C36.047 30.608 31.78 34.874 27 34.874s-9.047-4.266-10.622-10.616c-.088-.348-.37-.607-.702-.744a1.023 1.023 0 00-.396-.075c-.23 0-.464.066-.655.185-.281 0-1.125-1.197-1.125-3.375 0-2.063.758-3.245 1.075-3.366a1.166 1.166 0 00.943-.32c.239-.24.358-.575.322-.91l-.031-.282c-.027-.248-.06-.493-.06-.747 0-6.203 5.048-11.25 11.251-11.25 6.203 0 11.25 5.047 11.25 11.25 0 .254-.032.5-.059.745l-.031.281a1.125 1.125 0 001.231 1.237l.034-.004c.317.121 1.075 1.303 1.075 3.366 0 2.178-.826 3.375-1.195 3.326z"/><path d="M27 10.125c-2.65 0-4.5 1.85-4.5 4.5a1.125 1.125 0 002.25 0c0-2.03 1.573-2.25 2.25-2.25s2.25.22 2.25 2.25c0 1.888-.416 2.75-1.712 3.54-2.502 1.53-2.92 3.552-2.774 4.506.085.553.558.934 1.102.934.045 0 .092-.005.14-.01.6-.069 1.034-.625.985-1.23-.002-.047-.074-1.183 1.721-2.28 1.98-1.21 2.788-2.791 2.788-5.46 0-2.65-1.85-4.5-4.5-4.5zm-1.125 18a1.125 1.125 0 100-2.25 1.125 1.125 0 000 2.25z"/></g><defs><clipPath id="cclip0"><path d="M0 0h54v54H0z"/></clipPath></defs></symbol><symbol viewBox="0 0 62 62" id="atom" xmlns="http://www.w3.org/2000/svg"><path d="M56.724 14.104c-2.537-3.382-8.2-4.317-15.607-2.605-.16-.381-.323-.755-.493-1.12a3.873 3.873 0 00-4.323-6.21C34.641 2.69 32.86 1.938 31 1.938c-2.136 0-4.164.985-6.027 2.928-1.561 1.628-2.934 3.858-4.09 6.633-7.408-1.712-13.07-.777-15.607 2.605C2.391 17.95 4.041 24.23 9.68 31c-.308.37-.605.74-.893 1.11a3.873 3.873 0 00-3.832 6.413c-1.546 3.796-1.439 7.026.321 9.372 1.707 2.276 4.827 3.444 8.942 3.444 2.002 0 4.24-.278 6.665-.838 1.156 2.775 2.529 5.004 4.09 6.632 1.863 1.944 3.891 2.93 6.027 2.93s4.164-.986 6.027-2.93c1.56-1.627 2.934-3.856 4.09-6.63.518.12 1.03.226 1.535.32a3.875 3.875 0 007.638.36c2.894-.394 5.11-1.52 6.434-3.287C59.609 44.05 57.959 37.77 52.32 31c5.639-6.77 7.29-13.05 4.404-16.896zm-1.55 1.162c2.245 2.992.651 8.397-4.145 14.252a56.286 56.286 0 00-6.962-6.405c-.455-3.525-1.226-6.877-2.25-9.786 6.407-1.43 11.358-.725 13.357 1.94zM39.928 48.202a50.013 50.013 0 01-6.674-2.384 68.702 68.702 0 008.612-5.28 44.59 44.59 0 01-1.937 7.664zm-17.857 0a44.622 44.622 0 01-1.938-7.664 68.655 68.655 0 008.612 5.28 50.01 50.01 0 01-6.674 2.384zm0-34.404a50.006 50.006 0 016.674 2.383 68.692 68.692 0 00-8.612 5.28 44.589 44.589 0 011.938-7.663zm1.627 26.837a66.687 66.687 0 01-3.939-2.784 61.212 61.212 0 010-13.702A66.675 66.675 0 0131 17.22a65.95 65.95 0 017.301 4.144 66.608 66.608 0 013.94 2.784 60.79 60.79 0 01.384 6.851 60.738 60.738 0 01-.385 6.851A66.688 66.688 0 0131 44.779a65.95 65.95 0 01-7.301-4.144zm-6.05-4.467A52.296 52.296 0 0112.244 31a52.35 52.35 0 015.405-5.168 63.408 63.408 0 000 10.336zm22.28-22.37a44.602 44.602 0 011.938 7.664 68.665 68.665 0 00-8.612-5.28 50.03 50.03 0 016.675-2.384zm4.423 12.034A52.291 52.291 0 0149.756 31a52.35 52.35 0 01-5.405 5.168 63.408 63.408 0 000-10.336zM39.72 7.75a1.938 1.938 0 11-3.875 0 1.938 1.938 0 013.875 0zM31 3.875c1.268 0 2.518.504 3.726 1.495a3.873 3.873 0 004.25 6.066c.082.18.163.363.242.548A53.784 53.784 0 0031 15.074a53.781 53.781 0 00-8.22-3.09c2.21-5.17 5.173-8.109 8.22-8.109zM6.826 15.266c1.999-2.664 6.95-3.368 13.357-1.94-1.023 2.91-1.794 6.26-2.25 9.786a56.362 56.362 0 00-6.962 6.406c-4.796-5.855-6.39-11.26-4.145-14.252zm.924 18.64a1.938 1.938 0 110 3.875 1.938 1.938 0 010-3.875zm-.924 12.828c-1.569-2.093-1.065-4.917-.196-7.181a3.873 3.873 0 003.848-6.458c.16-.205.325-.41.493-.614a56.28 56.28 0 006.962 6.406c.455 3.526 1.226 6.877 2.25 9.786-6.407 1.43-11.358.725-13.357-1.94zM31 58.125c-3.047 0-6.01-2.94-8.22-8.109a53.77 53.77 0 008.22-3.09 53.791 53.791 0 008.22 3.09c-2.21 5.17-5.172 8.109-8.22 8.109zm15.5-5.813a1.937 1.937 0 110-3.874 1.937 1.937 0 010 3.874zm8.674-5.578c-.981 1.31-2.69 2.166-4.97 2.505a3.875 3.875 0 00-7.287-.338 33.671 33.671 0 01-1.1-.228c1.024-2.91 1.795-6.26 2.25-9.785a56.347 56.347 0 006.962-6.406c4.796 5.855 6.39 11.26 4.145 14.252z"/><path d="M31 23.25A7.75 7.75 0 1038.75 31 7.759 7.759 0 0031 23.25zm0 13.563A5.812 5.812 0 1136.813 31 5.82 5.82 0 0131 36.813z"/></symbol><symbol viewBox="0 0 53 53" id="clock" xmlns="http://www.w3.org/2000/svg"><path d="M26.5 8.641c.634 0 1.152-.518 1.152-1.152v-.576c0-.634-.518-1.152-1.152-1.152-.634 0-1.152.518-1.152 1.152v.576c0 .634.518 1.152 1.152 1.152zm0 35.718c-.634 0-1.152.518-1.152 1.152v.576c0 .634.518 1.152 1.152 1.152.634 0 1.152-.518 1.152-1.152v-.576c0-.634-.518-1.152-1.152-1.152zM7.49 25.348h-.577c-.634 0-1.152.518-1.152 1.152 0 .634.518 1.152 1.152 1.152h.576c.634 0 1.152-.518 1.152-1.152 0-.634-.518-1.152-1.152-1.152zm38.597 0h-.576c-.634 0-1.152.518-1.152 1.152 0 .634.518 1.152 1.152 1.152h.576c.634 0 1.152-.518 1.152-1.152 0-.634-.518-1.152-1.152-1.152zM13.48 11.867a1.114 1.114 0 00-1.613 0 1.115 1.115 0 000 1.613l.404.404c.23.23.518.345.806.345.288 0 .576-.115.807-.345.46-.461.46-1.152 0-1.613l-.404-.404zm-1.21 27.249l-.403.404c-.46.46-.46 1.152 0 1.613.23.23.519.345.807.345.288 0 .576-.115.806-.345l.404-.404c.46-.46.46-1.152 0-1.613a1.114 1.114 0 00-1.613 0zm27.25-27.249l-.404.404c-.46.46-.46 1.152 0 1.613.23.23.519.345.807.345.288 0 .576-.115.806-.345l.404-.404c.46-.46.46-1.152 0-1.613a1.114 1.114 0 00-1.613 0zM27.652 26.04V15.553c0-.633-.518-1.152-1.152-1.152-.634 0-1.152.519-1.152 1.152V26.5c0 .288.115.576.345.806L38.31 39.924c.23.23.518.346.806.346.288 0 .576-.116.807-.346.46-.461.46-1.152 0-1.613l-12.27-12.27z"/><path d="M26.5 0C11.867 0 0 11.867 0 26.5S11.867 53 26.5 53 53 41.133 53 26.5 41.133 0 26.5 0zm0 50.696c-13.365 0-24.196-10.83-24.196-24.196 0-13.365 10.83-24.196 24.196-24.196 13.365 0 24.196 10.83 24.196 24.196 0 13.365-10.83 24.196-24.196 24.196z"/></symbol><symbol viewBox="0 0 62 62" id="dropper1" xmlns="http://www.w3.org/2000/svg"><g clip-path="url(#fclip0)"><path d="M38.595 9.612V6.038c2.16-.753 3.714-1.809 3.714-4.222h-2.633a1.9 1.9 0 01-1.897 1.897 1.9 1.9 0 01-1.897-1.897V0H9.597v62h2.633V2.633h21.325a5.557 5.557 0 003.407 3.406v3.573H23.155v31.959l6.105 6.188h2.865v.548c0 2.482 2.608 4.594 4.837 5.353V62h1.633v-8.34c2.229-.759 4.837-2.871 4.837-5.353v-.549h2.865l6.106-6.187V9.612H38.595zm11.175 2.633v6.02h-5.51v2.632h5.51v5.042h-5.51v2.633h5.51v5.042H25.788v-21.37H49.77zM40.8 48.307c0 1.504-1.115 3.02-3.021 3.02-1.559 0-3.021-1.167-3.021-3.02v-.549H40.8v.549zm4.979-3.181h-16l-3.991-4.045v-4.834H49.77v4.834l-3.992 4.045z"/></g><defs><clipPath id="fclip0"><path d="M0 0h62v62H0z"/></clipPath></defs></symbol><symbol viewBox="0 0 62 62" id="education1" xmlns="http://www.w3.org/2000/svg"><path d="M13.407 44.667a.908.908 0 000 1.817h5.18a.908.908 0 000-1.817h-5.18zm21.51-15.547a.908.908 0 00-.908-.909h-12.95a.908.908 0 000 1.817h12.95a.908.908 0 00.908-.909z"/><path d="M27.92 50.545h-16.8a1.515 1.515 0 01-1.514-1.514V4.435c0-.979-.319-1.884-.858-2.619h35.267c.798 0 1.447.648 1.447 1.443v27.014a.908.908 0 101.816 0V3.26A3.264 3.264 0 0044.016 0H5.166a4.442 4.442 0 00-4.44 4.435v8.192c0 1.169.951 2.12 2.12 2.12h2.066a.908.908 0 000-1.817H2.846a.303.303 0 01-.303-.303V4.435a2.624 2.624 0 015.247 0V49.03a3.334 3.334 0 003.33 3.33h16.8a.908.908 0 100-1.816z"/><path d="M37.272 25.593a.908.908 0 00-.908-.908h-17.66a.908.908 0 000 1.816h17.66a.908.908 0 00.908-.908zM21.379 42.05a.908.908 0 00-.908-.909h-7.064a.908.908 0 000 1.817h7.064a.908.908 0 00.908-.909zm32.04 3.063a.908.908 0 00-1.003.802l-1.558 14a.302.302 0 01-.3.269h-16.67a.302.302 0 01-.3-.27L32.03 45.915a.908.908 0 10-1.805.201l1.557 14A2.117 2.117 0 0033.89 62h16.668c1.081 0 1.987-.81 2.106-1.885l1.558-13.999a.908.908 0 00-.802-1.003z"/><path d="M61.232 56.526l-.942-3.762a1.377 1.377 0 00-1.24-1.04v-10.41a2.054 2.054 0 001.283-1.959 2.057 2.057 0 00-1.448-1.949l-15.646-5.011a3.312 3.312 0 00-2.032 0l-15.646 5.011a2.056 2.056 0 00-1.448 1.949 2.057 2.057 0 001.381 1.997l15.607 5.585a3.34 3.34 0 002.244 0l13.89-4.97v9.757a1.377 1.377 0 00-1.24 1.04l-.942 3.762a1.37 1.37 0 00.25 1.182c.264.337.66.53 1.088.53h3.503a1.37 1.37 0 001.087-.53 1.37 1.37 0 00.25-1.182zM42.733 45.227a1.516 1.516 0 01-1.02 0l-15.607-5.586a.249.249 0 01-.177-.255.249.249 0 01.186-.25l15.646-5.012a1.513 1.513 0 01.924 0l15.646 5.012a.25.25 0 01.185.25.249.249 0 01-.177.255l-15.606 5.586zm14.218 11.195l.723-2.885h.937l.722 2.885h-2.382zm-36.8-37.882c0 .502.407.908.908.908h12.95a.908.908 0 100-1.816h-12.95a.908.908 0 00-.908.908zm11.773-9.19a4.35 4.35 0 01-1.286 3.098 4.35 4.35 0 01-1.64 1.034.908.908 0 00.604 1.713 6.153 6.153 0 002.32-1.462A6.153 6.153 0 0033.74 9.35a6.153 6.153 0 00-1.818-4.383.909.909 0 00-1.284 1.286 4.349 4.349 0 011.286 3.097z"/><path d="M27.534 6.091a.908.908 0 00-.908.908v1.443H25.18a.908.908 0 000 1.817h1.446V11.7a.908.908 0 001.816 0v-1.44h1.447a.908.908 0 000-1.817h-1.447V7a.908.908 0 00-.908-.908z"/><path d="M23.146 4.967a6.153 6.153 0 00-1.818 4.383 6.15 6.15 0 001.819 4.383 6.153 6.153 0 002.32 1.462.908.908 0 10.603-1.713 4.348 4.348 0 01-1.64-1.034 4.349 4.349 0 01-1.285-3.098c0-1.17.456-2.27 1.285-3.097a.908.908 0 10-1.284-1.286z"/></symbol><symbol viewBox="0 0 63 63" id="family1" xmlns="http://www.w3.org/2000/svg"><path d="M30.97 35.606a1.845 1.845 0 001.06 0 18.977 18.977 0 009.842-6.898A18.977 18.977 0 0045.65 17.3V6.768c0-1.02-.826-1.846-1.845-1.846a6.085 6.085 0 01-5.472-3.382l-.26-.52A1.846 1.846 0 0036.422 0h-9.844c-.699 0-1.338.395-1.65 1.02l-.26.52a6.085 6.085 0 01-5.473 3.382 1.845 1.845 0 00-1.845 1.846V17.3c0 4.141 1.306 8.086 3.778 11.408a18.977 18.977 0 009.842 6.898zM20.04 7.44c2.793-.527 6.222-2.24 7.66-4.75h7.598c1.438 2.51 4.867 4.223 7.66 4.75v9.86c0 6.675-5.18 13.474-11.459 15.6-6.279-2.126-11.459-8.925-11.459-15.6V7.44z"/><path d="M29.76 23.168c.472 0 .945-.18 1.305-.54l6.96-6.961a1.846 1.846 0 10-2.61-2.61l-5.655 5.655-2.175-2.175a1.846 1.846 0 10-2.61 2.61l3.48 3.48c.36.36.833.54 1.305.54zm26 20.232a7.972 7.972 0 002.318-5.625c0-4.41-3.588-7.998-7.998-7.998s-7.998 3.588-7.998 7.998c0 2.188.883 4.172 2.31 5.617a12.905 12.905 0 00-6.423 7.092 10.519 10.519 0 00-1.35-.906 6.737 6.737 0 001.649-4.42 6.775 6.775 0 00-6.768-6.767 6.775 6.775 0 00-6.768 6.767c0 1.688.623 3.233 1.65 4.42-.475.267-.926.57-1.35.906a12.905 12.905 0 00-6.425-7.092 7.972 7.972 0 002.311-5.617c0-4.41-3.588-7.998-7.998-7.998s-7.998 3.588-7.998 7.998c0 2.191.886 4.179 2.318 5.625C2.956 45.506 0 49.915 0 55.002v6.152C0 62.174.826 63 1.846 63h59.308c1.02 0 1.846-.826 1.846-1.846v-6.152c0-5.087-2.956-9.496-7.24-11.602zm-10.987-5.625C44.773 35 47 32.47 50.08 32.47c2.92 0 5.307 2.582 5.307 5.306 0 2.725-2.387 5.307-5.307 5.307-2.92 0-5.307-2.531-5.307-5.307zm-17.35 7.383c0-2.076 1.577-4.076 4.077-4.076s4.076 2 4.076 4.076c0 1.696-1.576 4.076-4.076 4.076-2.5 0-4.076-2-4.076-4.076zm-19.81-7.383c0-3.275 2.387-5.306 5.307-5.306 2.92 0 5.307 2.582 5.307 5.306 0 2.725-2.227 5.307-5.307 5.307-3.92 0-5.307-2.932-5.307-5.307zM2.691 55.002C3 49.5 7.831 44.773 12.92 44.773c4.786 0 9.733 4.622 10.185 9.33a10.395 10.395 0 00-1.064 4.59v1.616H2.691v-5.307zm36.577 5.307H23.732v-1.616c0-3.731 2.65-8.21 7.768-7.767 4.807-.442 7.768 4.036 7.768 7.767v1.616zm21.04 0H40.96v-1.616c0-1.645-.383-3.203-1.064-4.59.452-4.708 5.399-9.33 10.185-9.33 5.089 0 10.229 5.14 10.229 10.229v5.307z"/></symbol><symbol viewBox="0 0 91 92" id="file" xmlns="http://www.w3.org/2000/svg"><path fill-rule="evenodd" clip-rule="evenodd" d="M75.366 17.996a1.816 1.816 0 00-.031-.29 1.908 1.908 0 00-.061-.224l-.02-.055a1.95 1.95 0 00-.088-.203l-.005-.01a1.771 1.771 0 00-.123-.198c-.011-.017-.023-.032-.035-.048a1.814 1.814 0 00-.154-.181L58.765.527a1.793 1.793 0 00-.179-.156l-.048-.036a1.687 1.687 0 00-.194-.124L58.33.204a1.849 1.849 0 00-.475-.17h-.001a1.861 1.861 0 00-.227-.028L57.57.003 57.51 0H17.24c-.981 0-1.777.804-1.777 1.797v76.91c0 .993.796 1.797 1.777 1.797H44v9.699a1.8 1.8 0 00.917 1.572 1.76 1.76 0 001.805-.05l6.77-4.293 6.769 4.293a1.765 1.765 0 001.805.05 1.8 1.8 0 00.917-1.572v-9.699h10.61c.981 0 1.777-.804 1.777-1.797v-60.65l-.003-.06zm-16.08-11.86L69.301 16.26H59.286V6.135zM43.122 55.5c-.125-.343-.328-.904-.333-1.133.139-.174.62-.483.916-.67.633-.405 1.35-.864 1.871-1.581.526-.725.74-1.563.929-2.301.082-.323.215-.845.33-1.042.062-.013.193-.032.44-.032.197 0 .419.011.654.023.269.013.547.027.837.027.64 0 1.157-.073 1.625-.23.819-.276 1.473-.808 2.051-1.279.32-.26.854-.695 1.04-.721.203.026.737.462 1.057.721.577.47 1.233 1.003 2.051 1.278.469.158.985.231 1.626.231.29 0 .567-.014.836-.027.235-.012.456-.023.655-.023.246 0 .377.018.44.032.114.197.247.719.33 1.042.188.738.403 1.576.928 2.3.52.718 1.238 1.176 1.872 1.581.294.19.776.497.915.67-.005.23-.208.79-.333 1.134-.264.728-.563 1.553-.563 2.468s.299 1.74.563 2.469c.125.343.328.904.333 1.133-.139.174-.62.482-.915.67-.634.405-1.352.864-1.872 1.581-.526.725-.74 1.563-.929 2.301-.082.322-.216.844-.329 1.042a2.207 2.207 0 01-.44.032c-.199 0-.42-.011-.655-.023a15.905 15.905 0 00-.836-.028c-.641 0-1.157.073-1.626.231-.818.275-1.474.809-2.051 1.278-.315.257-.84.684-1.049.721-.209-.037-.733-.464-1.047-.72-.579-.47-1.233-1.004-2.052-1.279-.468-.158-.985-.23-1.625-.23-.29 0-.568.013-.837.027-.235.012-.456.023-.654.023-.247 0-.377-.019-.44-.032-.114-.198-.248-.72-.33-1.042-.189-.738-.403-1.576-.929-2.3-.52-.718-1.238-1.177-1.871-1.582-.295-.188-.777-.496-.916-.67.005-.229.209-.79.333-1.133.265-.728.564-1.554.564-2.468 0-.916-.3-1.741-.564-2.469zm16.305 31.454l-4.992-3.166a1.765 1.765 0 00-1.89 0l-4.991 3.166v-16.17c.188-.006.374-.013.554-.022.235-.012.457-.023.658-.023.315 0 .45.029.502.046.212.072.618.403.945.67.83.675 1.862 1.515 3.277 1.515s2.448-.84 3.277-1.516c.327-.266.734-.597.945-.668.053-.017.188-.047.503-.047.2 0 .423.011.658.023.18.01.365.017.553.022v16.17h.001zm3.555-10.044v-7.574c.528-.726.749-1.585.936-2.315.098-.383.232-.907.354-1.075.121-.169.573-.457.903-.668.875-.558 1.963-1.254 2.396-2.57.428-1.297-.017-2.523-.375-3.509-.162-.447-.346-.954-.346-1.231 0-.277.184-.783.346-1.23.358-.986.803-2.213.375-3.51-.433-1.315-1.521-2.01-2.396-2.57-.33-.21-.782-.5-.903-.666-.123-.169-.257-.693-.354-1.076-.256-1-.574-2.246-1.663-3.053-.866-.642-1.87-.716-2.549-.716-.287 0-.565.014-.833.028-.235.012-.457.023-.657.023-.316 0-.451-.03-.503-.047-.211-.07-.618-.402-.945-.669-.83-.674-1.863-1.514-3.278-1.514-1.414 0-2.447.84-3.277 1.514-.327.266-.733.598-.944.67-.053.017-.188.046-.503.046-.2 0-.423-.01-.658-.023a15.789 15.789 0 00-.833-.028c-.68 0-1.683.075-2.548.716-1.09.807-1.408 2.052-1.664 3.053-.098.383-.232.907-.353 1.075-.123.168-.575.457-.904.667-.875.56-1.963 1.255-2.396 2.57-.428 1.298.017 2.524.375 3.51.162.447.346.953.346 1.23s-.184.784-.346 1.231c-.358.986-.803 2.212-.375 3.51.433 1.315 1.522 2.01 2.396 2.57.33.21.782.5.904.667.121.168.255.692.353 1.075.187.73.408 1.59.937 2.315v7.574H19.018V3.594H55.73v14.463c0 .993.796 1.797 1.778 1.797h14.305V76.91h-8.832z" fill-opacity=".2"/><path fill-rule="evenodd" clip-rule="evenodd" d="M25.925 19.854h22.898c.981 0 1.778-.804 1.778-1.797 0-.992-.797-1.797-1.778-1.797H25.925c-.982 0-1.777.805-1.777 1.797 0 .993.796 1.797 1.777 1.797zm39.181 5.476H25.925c-.982 0-1.777.805-1.777 1.797 0 .992.795 1.797 1.777 1.797h39.18c.982 0 1.778-.805 1.778-1.797 0-.992-.796-1.797-1.777-1.797zm-7.11 9.07H25.925c-.982 0-1.777.806-1.777 1.797 0 .993.795 1.797 1.777 1.797h32.071c.982 0 1.777-.804 1.777-1.797 0-.992-.795-1.797-1.777-1.797zm7.11 0a1.79 1.79 0 00-1.778 1.797c0 .99.799 1.797 1.778 1.797a1.79 1.79 0 001.777-1.797 1.79 1.79 0 00-1.777-1.797z" fill-opacity=".2"/></symbol><symbol viewBox="0 0 35 35" id="glaz" xmlns="http://www.w3.org/2000/svg"><path d="M34.778 16.82c-.313-.428-7.763-10.474-17.278-10.474C7.985 6.346.534 16.392.222 16.82a1.155 1.155 0 000 1.362c.312.427 7.763 10.473 17.278 10.473 9.515 0 16.965-10.046 17.278-10.473a1.154 1.154 0 000-1.362zM17.5 26.345c-7.009 0-13.08-6.667-14.876-8.847 1.794-2.181 7.852-8.845 14.876-8.845 7.008 0 13.078 6.666 14.876 8.847-1.795 2.181-7.852 8.845-14.876 8.845z"/><path d="M17.5 10.577a6.931 6.931 0 00-6.923 6.923 6.931 6.931 0 006.923 6.923 6.931 6.931 0 006.923-6.923 6.931 6.931 0 00-6.923-6.923zm0 11.538a4.62 4.62 0 01-4.616-4.615 4.62 4.62 0 014.616-4.615 4.62 4.62 0 014.615 4.615 4.62 4.62 0 01-4.615 4.615z"/></symbol><symbol viewBox="0 0 65 65" id="handshake" xmlns="http://www.w3.org/2000/svg"><path d="M16.69 22.715a.878.878 0 01-.032-1.757 88.048 88.048 0 0012.868-1.09.842.842 0 01.23-.015 6.31 6.31 0 013.008.949.878.878 0 11-1.078 1.388 4.383 4.383 0 00-1.937-.574 91.245 91.245 0 01-13.037 1.099h-.023z"/><path d="M48.82 43.611a3.535 3.535 0 01-2.086-.676l-.189-.13a.853.853 0 01-.104-.089L36.1 35.27a.88.88 0 01.36-1.593.877.877 0 01.66.163l.703.501 9.675 6.977a.6.6 0 01.083.068l.167.116a1.83 1.83 0 002.496-.345 1.802 1.802 0 00.315-1.63 1.761 1.761 0 00-.584-.888L36.147 27.372c-5.296 2.81-9.047 1.365-10.838.22a2.02 2.02 0 01.171-3.486l7.916-4.204a4.323 4.323 0 013.31-.29l4.682 1.52a6.09 6.09 0 004.217-.152l2.04-.835a.879.879 0 11.666 1.626l-2.038.834a7.832 7.832 0 01-5.43.197l-4.678-1.519a2.546 2.546 0 00-1.95.176l-7.917 4.205a.262.262 0 00-.151.23.24.24 0 00.112.225c1.845 1.178 5.011 2.043 9.545-.562a.878.878 0 01.992.081L51.08 37.277c.56.451.967 1.065 1.166 1.756a3.585 3.585 0 01-.615 3.202 3.541 3.541 0 01-2.81 1.377z"/><path d="M45.185 47.683a3.58 3.58 0 01-2.077-.662l-9.495-6.737a.878.878 0 011.016-1.432l9.495 6.736a1.845 1.845 0 002.144-2.999l-9.464-6.82a.879.879 0 011.024-1.424l9.466 6.821a3.602 3.602 0 01-2.108 6.519v-.002z"/><path d="M41.086 51.202a3.461 3.461 0 01-1.977-.62L30.6 44.686a.879.879 0 011-1.444l8.51 5.893a1.73 1.73 0 002.406-.439 1.736 1.736 0 00-.422-2.393l-8.467-6.007a.879.879 0 111.016-1.432l8.468 6.006a3.499 3.499 0 01.851 4.825 3.464 3.464 0 01-2.876 1.506z"/><path d="M36.067 54.09a3.514 3.514 0 01-1.749-.476l-4.723-2.722a.878.878 0 01.879-1.522l4.722 2.723a1.757 1.757 0 002.371-.629 1.721 1.721 0 00-.515-2.302l-6.035-4.18a.88.88 0 01-.221-1.222.878.878 0 011.222-.222l6.033 4.179a3.498 3.498 0 01-1.985 6.373h.001z"/><path d="M26.121 53.566a3.531 3.531 0 01-2.333-6.186l2.346-2.056a3.532 3.532 0 114.661 5.31l-2.346 2.06a3.518 3.518 0 01-2.328.872zm2.343-7.363a1.768 1.768 0 00-1.171.439L24.946 48.7a1.778 1.778 0 00-.164 2.506 1.776 1.776 0 002.506.164l2.347-2.06a1.775 1.775 0 00-1.171-3.107z"/><path d="M20.804 51.173c-.079 0-.157 0-.235-.007a3.514 3.514 0 01-2.426-1.194 3.546 3.546 0 01.303-5.015l3.92-3.44a3.534 3.534 0 014.985.324l-.635.608.66-.58a3.532 3.532 0 01-.325 4.986l-3.922 3.441a3.505 3.505 0 01-2.325.877zm3.886-8.778a1.763 1.763 0 00-1.169.44l-3.919 3.44a1.803 1.803 0 001.081 3.136 1.759 1.759 0 001.287-.44l3.92-3.44a1.776 1.776 0 00.163-2.507l-.026-.03a1.762 1.762 0 00-1.338-.598l.001-.001z"/><path d="M16.371 47.949c-.077 0-.155 0-.234-.007a3.514 3.514 0 01-2.426-1.195l-.096-.114a3.533 3.533 0 01.326-4.984l4.544-3.989a3.532 3.532 0 014.985.325l.1.113a3.532 3.532 0 01-.326 4.984L18.7 47.07a3.506 3.506 0 01-2.329.878zm4.439-9.41a1.764 1.764 0 00-1.17.44l-4.543 3.989a1.778 1.778 0 00-.165 2.508l.1.114a1.777 1.777 0 002.506.161l4.543-3.988a1.777 1.777 0 00.164-2.507l-.098-.112a1.76 1.76 0 00-1.218-.599 1.395 1.395 0 00-.12-.005z"/><path d="M12.553 44.04c-.077 0-.157 0-.235-.009a3.556 3.556 0 01-2.129-6.214l2.845-2.497a3.531 3.531 0 014.986.324l.03.035a3.533 3.533 0 01-.323 4.985l-2.845 2.498a3.506 3.506 0 01-2.33.877zm2.81-7.842a1.764 1.764 0 00-1.168.44l-2.845 2.496a1.776 1.776 0 00-.164 2.507 1.79 1.79 0 002.537.199l2.845-2.497a1.777 1.777 0 00.163-2.507l-.03-.035a1.764 1.764 0 00-1.22-.6l-.122-.003h.005z"/><path d="M10.96 39.186a.873.873 0 01-.528-.175l-3-2.284a.879.879 0 011.063-1.399l3.001 2.284a.878.878 0 01-.532 1.581l-.005-.007zm40.442.974a.88.88 0 01-.621-1.5l4.928-4.93a.879.879 0 011.242 1.242L52.023 39.9a.878.878 0 01-.621.26z"/><path d="M58.122 38.337a.878.878 0 01-.749-.418L46.648 20.474a.878.878 0 01.21-1.154l10.623-8.227a.879.879 0 011.394.498L64.1 34.382a.878.878 0 01-.426.967l-5.122 2.878a.873.873 0 01-.429.11zm-9.564-18.112l9.87 16.052 3.812-2.143-4.77-20.81-8.912 6.9zM6.878 38.649a.878.878 0 01-.43-.113l-5.122-2.874a.878.878 0 01-.426-.966l5.225-22.789a.878.878 0 011.394-.498l10.623 8.226a.878.878 0 01.21 1.154L7.628 38.234a.879.879 0 01-.75.415zM2.76 34.452l3.813 2.142 9.87-16.053-8.914-6.902-4.77 20.813z"/></symbol><symbol viewBox="0 0 62 62" id="hospital" xmlns="http://www.w3.org/2000/svg"><path d="M61.031 29.067h-2.906a.968.968 0 00-.969.968v3.871h-1.945a.968.968 0 00-.969-.968H17.426a.968.968 0 00-.969.968h-.963v-.965a4.855 4.855 0 00-4.85-4.849c-.006 0-.012.004-.019.004H4.844V16.459a.968.968 0 00-.969-.968H.969a.968.968 0 00-.969.968v39.727c0 .535.433.968.969.968h2.906a.968.968 0 00.969-.968v-4.84h52.312v4.84c0 .535.433.968.969.968h2.906a.968.968 0 00.969-.968v-26.15a.968.968 0 00-.969-.97zm-3.875 6.777v1.943h-1.945v-1.943h1.945zm-38.761 7.752v-8.72h.98v6.78c0 .536.433.97.969.97h31a.968.968 0 00.968-.97v-6.78h.962v8.72h-34.88zm31.98-2.908H21.312v-5.813h29.063v5.813zm-33.918-2.9H4.844v-1.944h11.613v1.943zm-5.812-7.755c.005 0 .007-.003.012-.003 1.6.008 2.9 1.311 2.9 2.911v.965H4.844v-3.873h5.8zM1.938 55.217V17.428h.968v11.607c0 .011-.006.019-.006.029 0 .01.006.019.006.029v26.124h-.969zm2.906-5.809v-9.683h11.613v4.84c0 .535.433.968.969.968h36.816a.968.968 0 00.969-.968v-4.84h1.945v9.683H4.844zm55.218 5.809h-.968V31.004h.968v24.213z"/><path d="M33.91 4.846c-5.876 0-10.657 4.78-10.657 10.656 0 5.875 4.78 10.656 10.656 10.656s10.656-4.78 10.656-10.656S39.785 4.846 33.91 4.846zm0 19.375c-4.809 0-8.72-3.911-8.72-8.719s3.911-8.719 8.72-8.719c4.807 0 8.718 3.911 8.718 8.719s-3.91 8.719-8.719 8.719z"/><path d="M37.78 14.531h-2.907v-2.906a.968.968 0 10-1.937 0v2.906h-2.907a.968.968 0 100 1.938h2.907v2.906a.968.968 0 101.937 0v-2.906h2.906a.968.968 0 100-1.938z"/></symbol><symbol viewBox="0 0 62 62" id="innovation" xmlns="http://www.w3.org/2000/svg"><g clip-path="url(#mclip0)"><path d="M31.227 9.473a17.564 17.564 0 00-17.713 17.025 17.352 17.352 0 003.213 10.578 19.442 19.442 0 013.506 11.338v4.67a.847.847 0 00.3.648l3.083 2.607v3.18A2.484 2.484 0 0026.1 62h9.8a2.484 2.484 0 002.482-2.481v-3.18l3.082-2.608a.846.846 0 00.3-.647v-4.672a20.095 20.095 0 013.618-11.494A17.493 17.493 0 0031.227 9.473zM37.225 55.1H24.777l-2.448-2.07h17.344l-2.448 2.07zm2.846-3.766H21.929V49.26h18.142v2.074zm-3.383 8.186a.787.787 0 01-.786.786h-9.803a.788.788 0 01-.787-.786v-2.725h11.376v2.725zm7.302-23.569a21.779 21.779 0 00-3.903 11.614H21.914a21.01 21.01 0 00-3.804-11.473 15.676 15.676 0 01-2.9-9.55 15.856 15.856 0 0115.794-15.377h.2A15.798 15.798 0 0143.992 35.95l-.002.001z"/><path d="M40.321 26.971a9.64 9.64 0 00-1.118-2.712l1.111-1.112a.848.848 0 000-1.199l-2.017-2.017a.847.847 0 00-1.2 0l-1.104 1.104a9.635 9.635 0 00-2.716-1.13v-1.559a.848.848 0 00-.848-.848h-2.856a.848.848 0 00-.847.848v1.56a9.637 9.637 0 00-2.719 1.13l-1.105-1.106a.846.846 0 00-1.2 0l-2.017 2.018a.846.846 0 000 1.198l1.112 1.112a9.64 9.64 0 00-1.119 2.713h-1.576a.847.847 0 00-.848.847v2.853a.848.848 0 00.848.848h1.59a9.62 9.62 0 001.123 2.694l-1.13 1.13a.846.846 0 000 1.2l2.018 2.017a.872.872 0 001.199 0l1.136-1.137c.834.504 1.74.88 2.685 1.111v1.61a.847.847 0 00.848.847h2.854a.847.847 0 00.847-.848v-1.608a9.632 9.632 0 002.688-1.112l1.136 1.137a.849.849 0 001.2 0l2.017-2.018a.846.846 0 000-1.199l-1.127-1.13a9.619 9.619 0 001.124-2.694h1.588a.848.848 0 00.848-.847v-2.853a.848.848 0 00-.848-.848h-1.577zm.73 2.853h-1.432a.847.847 0 00-.836.708 7.9 7.9 0 01-1.376 3.293.847.847 0 00.089 1.098l1.02 1.018-.818.818-1.025-1.025a.848.848 0 00-1.092-.09 7.902 7.902 0 01-3.294 1.36.847.847 0 00-.706.84v1.452H30.42v-1.453a.847.847 0 00-.708-.837 7.902 7.902 0 01-3.294-1.36.847.847 0 00-1.092.09l-1.024 1.025-.819-.819 1.023-1.019a.847.847 0 00.088-1.095 7.9 7.9 0 01-1.376-3.294.848.848 0 00-.836-.707H20.95v-1.158h1.423a.848.848 0 00.837-.712 7.9 7.9 0 011.365-3.315.847.847 0 00-.09-1.092l-1-1 .818-.819.996.996a.848.848 0 001.095.089 7.885 7.885 0 013.318-1.38.848.848 0 00.708-.84v-1.404h1.162v1.405a.848.848 0 00.71.836c1.197.2 2.332.672 3.316 1.381a.847.847 0 001.095-.089l.996-.995.819.818-1 1a.848.848 0 00-.09 1.092 7.899 7.899 0 011.364 3.315.848.848 0 00.837.712h1.423v1.157z"/><path d="M31 23.262a5.958 5.958 0 105.958 5.958A5.966 5.966 0 0031 23.262zm0 10.223a4.262 4.262 0 110-8.525 4.262 4.262 0 010 8.526zM31 6.58a.848.848 0 00.848-.848V.848a.848.848 0 00-1.696 0v4.884a.848.848 0 00.848.847zm20.722 2.5l-3.454 3.453a.848.848 0 001.199 1.2l3.453-3.454a.847.847 0 10-1.198-1.2zm9.43 21.072h-4.884a.847.847 0 100 1.696h4.884a.848.848 0 000-1.696zm-55.42 0H.848a.848.848 0 100 1.696h4.884a.848.848 0 000-1.696zm8-17.619L10.278 9.08a.848.848 0 10-1.198 1.199l3.453 3.453a.848.848 0 001.199-1.199z"/></g><defs><clipPath id="mclip0"><path d="M0 0h62v62H0z"/></clipPath></defs></symbol><symbol viewBox="0 0 54 54" id="like" xmlns="http://www.w3.org/2000/svg"><path d="M54 32.063a4.999 4.999 0 00-1.465-3.542 5.587 5.587 0 001.44-4.295c-.263-2.86-2.84-5.101-5.868-5.101H34.21c.688-2.09 1.791-5.922 1.791-9 0-4.88-4.147-9-6.75-9-2.335 0-4.007 1.316-4.077 1.37a1.126 1.126 0 00-.423.88v7.63l-6.482 14.037-.268.138v-.43c0-.621-.504-1.125-1.125-1.125H5.625A5.63 5.63 0 000 29.25v18a5.63 5.63 0 005.625 5.625h6.75a5.638 5.638 0 005.294-3.72c1.872.964 4.392 1.47 5.956 1.47h20.653c2.45 0 4.594-1.651 5.098-3.928a5.08 5.08 0 00-.405-3.382 5.041 5.041 0 002.253-6.75A5.042 5.042 0 0054 32.063zm-4.745 2.776a1.13 1.13 0 00-.94.763c-.138.416-.023.873.296 1.174.572.538.89 1.262.89 2.036a2.804 2.804 0 01-2.494 2.777 1.13 1.13 0 00-.94.763c-.138.416-.023.873.297 1.174.74.698 1.037 1.676.814 2.684-.277 1.256-1.496 2.165-2.9 2.165H23.625c-1.827 0-4.892-.857-5.953-1.922a1.125 1.125 0 00-1.922.797 3.38 3.38 0 01-3.375 3.375h-6.75A3.38 3.38 0 012.25 47.25v-18a3.38 3.38 0 013.375-3.375H15.75V27c0 .39.203.752.535.959a1.15 1.15 0 001.094.047l2.25-1.125c.227-.113.41-.302.517-.534l6.75-14.625c.068-.148.104-.31.104-.472V3.985c.468-.259 1.28-.61 2.25-.61 1.233 0 4.5 3.064 4.5 6.75 0 3.96-2.155 9.668-2.176 9.724-.13.345-.085.734.124 1.04.212.304.558.486.927.486h15.482c1.877 0 3.47 1.343 3.627 3.058a3.361 3.361 0 01-1.602 3.184 1.13 1.13 0 00.076 1.96 2.785 2.785 0 011.542 2.485 2.804 2.804 0 01-2.495 2.777z"/><path d="M16.875 25.875c-.621 0-1.125.504-1.125 1.125v20.25a1.125 1.125 0 002.25 0V27c0-.621-.504-1.125-1.125-1.125z"/></symbol><symbol viewBox="0 0 68 68" id="list" xmlns="http://www.w3.org/2000/svg"><g clip-path="url(#oclip0)"><path d="M18.183 23.331l1.707 1.102a.994.994 0 001.211-.101l4.044-3.69a.996.996 0 00-1.342-1.471l-3.478 3.172-1.061-.686a.996.996 0 00-1.08 1.674zm10.526-.583h14.145a.996.996 0 100-1.993H28.709a.996.996 0 100 1.993zm0 8.883h14.145a.996.996 0 100-1.992H28.709a.996.996 0 100 1.992zm0 8.885h11.553a.996.996 0 100-1.993H28.71a.996.996 0 100 1.993zm0 8.887h4.346a.996.996 0 100-1.992H28.71a.996.996 0 100 1.992zm-4.906-22.035l-3.479 3.173-1.062-.683a.996.996 0 00-1.078 1.675l1.707 1.098a.994.994 0 001.21-.102l4.044-3.69a.996.996 0 00-1.342-1.471zm-5.62 12.361l1.707 1.102a.994.994 0 001.211-.102l4.044-3.689a.996.996 0 00-1.342-1.472l-3.478 3.173-1.061-.686a.996.996 0 00-1.08 1.674zm0 8.197l1.707 1.101a.994.994 0 001.211-.1l4.044-3.69a.996.996 0 10-1.342-1.472l-3.477 3.173-1.062-.686a.996.996 0 10-1.08 1.674zm36.284 3.466h-2.211V49.18c0-.776-.632-1.407-1.407-1.407h-4.093c-.776 0-1.407.631-1.407 1.407v2.212h-2.211a1.41 1.41 0 00-1.41 1.41v4.09c0 .777.632 1.41 1.41 1.41h2.211v2.211c0 .776.631 1.407 1.407 1.407h4.093c.776 0 1.407-.63 1.407-1.407v-2.211h2.211c.778 0 1.41-.633 1.41-1.41v-4.09a1.41 1.41 0 00-1.41-1.41zm-.581 4.918h-2.04c-.872 0-1.582.708-1.582 1.578v2.04h-2.922v-2.04c0-.87-.71-1.578-1.583-1.578h-2.04v-2.926h2.04c.873 0 1.582-.708 1.582-1.579v-2.04h2.922v2.04c0 .87.71 1.579 1.583 1.579h2.04v2.926z"/><path d="M56.494 44.183V29.578a.996.996 0 10-1.992 0v13.415a13.049 13.049 0 00-3.277-1.075V12.244c0-.904-.737-1.639-1.642-1.639H43.67V7.33h9.863c.534 0 .968.432.968.964V30a.996.996 0 101.992 0V8.293a2.962 2.962 0 00-2.96-2.957h-9.969a1.707 1.707 0 00-1.6-1.124h-3.507a8.226 8.226 0 00-1.364-1.8A8.186 8.186 0 0031.267 0a8.17 8.17 0 00-5.824 2.413 8.26 8.26 0 00-1.367 1.8h-3.504a1.71 1.71 0 00-1.604 1.123H8.999a2.96 2.96 0 00-2.956 2.957v52.81a2.96 2.96 0 002.956 2.957h30.426A13.115 13.115 0 0048.803 68c7.253 0 13.154-5.901 13.154-13.155 0-4.383-2.156-8.271-5.463-10.662zM20.854 6.204h3.687l.034.001c.476.012.852-.218 1.052-.658l.01-.022a6.24 6.24 0 011.215-1.704 6.191 6.191 0 014.415-1.829c1.67 0 3.239.65 4.418 1.83.5.5.908 1.073 1.212 1.703l.006.013.014.029c.263.547.712.65 1.044.638h3.717v5.92H20.855v-5.92zM9 62.068a.965.965 0 01-.964-.964V8.293c0-.532.433-.965.964-.965h9.863v3.277H12.95a1.64 1.64 0 00-1.638 1.639V41a.996.996 0 101.992 0V12.598h5.57a1.71 1.71 0 001.698 1.52h21.393c.878 0 1.602-.667 1.695-1.52h5.573v29.104a13.367 13.367 0 00-.43-.008c-7.254 0-13.155 5.9-13.155 13.15 0 .665.05 1.317.145 1.955H13.304V41.633a.996.996 0 10-1.992 0v15.52a1.64 1.64 0 001.638 1.638h23.303a13.134 13.134 0 001.56 3.277H9zm39.803 3.94c-6.155 0-11.162-5.008-11.162-11.163 0-6.153 5.007-11.16 11.163-11.16 6.155 0 11.162 5.007 11.162 11.16 0 6.155-5.007 11.163-11.163 11.163z"/></g><defs><clipPath id="oclip0"><path d="M0 0h68v68H0z"/></clipPath></defs></symbol><symbol viewBox="0 0 62 62" id="patient1" xmlns="http://www.w3.org/2000/svg"><path d="M23.25 25.833c-7.122 0-12.917-5.794-12.917-12.916C10.333 5.794 16.128 0 23.25 0s12.917 5.794 12.917 12.917c0 7.122-5.795 12.916-12.917 12.916zm0-23.25c-5.699 0-10.333 4.635-10.333 10.334S17.55 23.25 23.25 23.25s10.333-4.634 10.333-10.333c0-5.7-4.634-10.334-10.333-10.334zm1.292 51.667H1.292A1.292 1.292 0 010 52.958V42.625C0 36.215 5.216 31 11.625 31h23.25a1.292 1.292 0 010 2.583h-23.25c-4.986 0-9.042 4.056-9.042 9.042v9.042h21.959a1.292 1.292 0 010 2.583zM47.792 62h-2.584a3.88 3.88 0 01-3.875-3.875v-6.458h-6.458A3.88 3.88 0 0131 47.792v-2.584a3.88 3.88 0 013.875-3.875h6.458v-6.458A3.88 3.88 0 0145.208 31h2.584a3.88 3.88 0 013.875 3.875v6.458h6.458A3.88 3.88 0 0162 45.208v2.584a3.88 3.88 0 01-3.875 3.875h-6.458v6.458A3.88 3.88 0 0147.792 62zM34.875 43.917c-.713 0-1.292.578-1.292 1.291v2.584c0 .713.579 1.291 1.292 1.291h7.75c.713 0 1.292.579 1.292 1.292v7.75c0 .713.578 1.292 1.291 1.292h2.584c.713 0 1.291-.579 1.291-1.292v-7.75c0-.713.579-1.292 1.292-1.292h7.75c.713 0 1.292-.578 1.292-1.291v-2.584c0-.713-.579-1.291-1.292-1.291h-7.75a1.292 1.292 0 01-1.292-1.292v-7.75c0-.713-.578-1.292-1.291-1.292h-2.584c-.713 0-1.291.579-1.291 1.292v7.75c0 .713-.579 1.292-1.292 1.292h-7.75z"/></symbol><symbol viewBox="0 0 84 84" id="phone-call" xmlns="http://www.w3.org/2000/svg"><path d="M61.851 0C49.64 0 39.703 9.936 39.703 22.148c0 3.805.973 7.52 2.824 10.816l-2.698 8.094a2.46 2.46 0 003.113 3.113l8.094-2.698a22.06 22.06 0 0010.815 2.824C74.064 44.297 84 34.36 84 22.148 84 9.936 74.064 0 61.85 0zm0 39.375c-3.268 0-6.451-.924-9.204-2.671a2.461 2.461 0 00-2.097-.257l-4.495 1.498 1.498-4.495a2.462 2.462 0 00-.257-2.097 17.144 17.144 0 01-2.671-9.205c0-9.498 7.728-17.226 17.226-17.226 9.5 0 17.227 7.728 17.227 17.226 0 9.5-7.728 17.227-17.227 17.227zm9.844-19.688a2.461 2.461 0 100 4.922 2.461 2.461 0 000-4.922zm-4.816 44.11L54.35 55.444a7.403 7.403 0 00-9.315.923l-3.297 3.296c-1.935-.28-6.534-1.431-11.252-6.15-4.718-4.718-5.869-9.316-6.15-11.251l3.297-3.297a7.403 7.403 0 00.923-9.316l-8.353-12.528a7.356 7.356 0 00-5.415-3.252 7.353 7.353 0 00-5.948 2.126l-5.222 5.222c-2.489 2.488-3.8 5.887-3.598 9.324.394 6.693 3.293 20.162 18.285 35.153C33.297 80.686 46.765 83.586 53.46 83.98c3.433.202 6.832-1.106 9.324-3.597l5.221-5.222a7.356 7.356 0 002.127-5.948 7.356 7.356 0 00-3.252-5.415zm-2.355 7.883l-5.222 5.222c-1.495 1.495-3.52 2.284-5.554 2.164-5.996-.353-18.122-3.011-31.962-16.852-13.841-13.84-16.5-25.966-16.852-31.962-.12-2.035.669-4.06 2.164-5.554l5.222-5.223a2.461 2.461 0 013.788.376L24.46 32.38c.649.972.52 2.278-.307 3.105l-4.108 4.107a2.461 2.461 0 00-.72 1.74c0 .326.087 8.068 7.68 15.662 7.595 7.594 15.336 7.681 15.662 7.681.653 0 1.279-.26 1.74-.72l4.108-4.108a2.467 2.467 0 013.105-.308l12.529 8.353a2.461 2.461 0 01.375 3.788zm-2.673-51.993a2.46 2.46 0 100 4.922 2.46 2.46 0 000-4.922zm-9.843 0a2.461 2.461 0 100 4.922 2.461 2.461 0 000-4.922z" fill-opacity=".2"/></symbol><symbol viewBox="0 0 62 62" id="syringe" xmlns="http://www.w3.org/2000/svg"><path d="M61.621 10.711L51.288.378a1.291 1.291 0 10-1.826 1.827l1.67 1.67-6.68 6.68-4.254-4.253a3.878 3.878 0 00-5.48 0 3.878 3.878 0 000 5.48l1.67 1.67-25.676 25.676a1.29 1.29 0 00-.379.913c0 .21.043 4.624 2.146 7.653l-12.1 12.1a1.291 1.291 0 101.826 1.827l12.1-12.1c3.018 2.1 7.423 2.145 7.653 2.145.343 0 .671-.136.914-.378l25.676-25.677 1.67 1.67a3.85 3.85 0 002.74 1.136 3.85 3.85 0 002.74-1.136 3.878 3.878 0 000-5.48l-4.254-4.253 6.68-6.68 1.67 1.67a1.288 1.288 0 001.828 0 1.291 1.291 0 000-1.827zM38.75 31.758l-2.962-2.962a1.291 1.291 0 10-1.826 1.826l2.961 2.962-4.632 4.632-1.67-1.67a1.291 1.291 0 10-1.826 1.826l1.67 1.67-4.632 4.632-2.961-2.962a1.291 1.291 0 10-1.827 1.827l2.962 2.962-2.564 2.563c-1.271-.078-4.575-.445-6.313-2.172-.004-.004-.005-.009-.009-.013-.003-.003-.008-.004-.012-.008-1.724-1.742-2.094-5.044-2.172-6.314L27.65 25.842c3.974.049 6.022.622 8.16 1.234 1.755.5 3.562 1.013 6.39 1.23l-3.45 3.45zm5.933-5.933c-3.974-.049-6.022-.621-8.16-1.233-1.756-.5-3.562-1.013-6.39-1.231l8.082-8.082 8.507 8.507-2.04 2.039zm9.188-2.196a1.291 1.291 0 010 1.827c-.49.487-1.337.487-1.826 0l-15.5-15.5a1.291 1.291 0 111.826-1.827l15.5 15.5zm-4.253-7.906l-3.34-3.34 6.68-6.68 3.34 3.34-6.68 6.68z"/></symbol><symbol viewBox="0 0 22 23" id="viber" xmlns="http://www.w3.org/2000/svg"><path d="M19.078 2.898C18.52 2.426 16.285.793 11.387.793c0 0-5.801-.344-8.637 2.234C1.16 4.617.602 6.895.559 9.773c-.043 2.836-.13 8.207 5.027 9.668v2.192s-.043.902.559 1.117c.73.215 1.117-.473 1.804-1.203.387-.43.903-.988 1.29-1.461 3.523.3 6.23-.387 6.573-.473.688-.258 4.727-.773 5.372-6.101.687-5.543-.301-9.024-2.106-10.614zm.559 10.184c-.516 4.469-3.825 4.77-4.426 4.984-.258.043-2.621.645-5.629.473 0 0-2.234 2.664-2.922 3.395-.215.214-.473.214-.473-.258V17.98c-4.34-1.204-4.082-5.758-4.039-8.122.043-2.406.473-4.34 1.805-5.671C6.36 1.995 11.301 2.34 11.301 2.34c4.168 0 6.144 1.289 6.617 1.676 1.547 1.332 2.32 4.468 1.719 9.066zm-5.973-3.437c-.043-1.247-.687-1.934-1.89-2.02-.387 0-.43.559-.043.559.902.086 1.332.515 1.417 1.46 0 .387.559.344.516 0zm.902.472c0 .344.559.387.559 0 .043-2.062-1.29-3.781-3.781-3.953-.387-.043-.43.516-.043.559 2.148.129 3.308 1.59 3.265 3.394zm2.02.559c-.043-3.739-2.578-5.93-5.758-5.973-.344 0-.344.559 0 .559 2.836.043 5.156 1.933 5.2 5.414 0 .386.558.386.558 0zm-.516 4.21c.215-.386.172-.73-.129-.988a10.427 10.427 0 00-1.976-1.418c-.473-.257-.945-.085-1.16.172l-.387.516c-.215.258-.602.215-.602.215-2.879-.73-3.652-3.61-3.652-3.61s0-.386.258-.601l.515-.43c.258-.215.387-.687.13-1.16a6.455 6.455 0 00-.645-.988c-.215-.344-.774-.946-.774-.946-.214-.343-.601-.386-.988-.171h-.043c-.816.43-1.719 1.332-1.418 2.191 0 0 .215.773 1.117 2.406.43.817.903 1.461 1.332 2.02a11.932 11.932 0 001.805 1.804c1.375 1.075 3.48 2.192 4.383 2.45h.043c.86.3 1.762-.602 2.191-1.418v-.043z"/></symbol><symbol viewBox="0 0 52 52" id="wallet" xmlns="http://www.w3.org/2000/svg"><path d="M49.52 30.458h-.777v-7.01a3.294 3.294 0 00-1.396-2.689v-.954a2.513 2.513 0 00-2.51-2.51h-.582l2.223-3.263a2.403 2.403 0 00-.631-3.334L30.762.418a2.383 2.383 0 00-1.799-.375c-.63.12-1.175.476-1.536 1.006l-13.02 19.107h-3.624l.875-8.85c.01-.1.074-.186.165-.22a5.633 5.633 0 002.748-2.233.26.26 0 01.246-.115L22.5 9.5a.741.741 0 00.146-1.475l-7.684-.762a1.734 1.734 0 00-1.642.795 4.142 4.142 0 01-2.02 1.641 1.732 1.732 0 00-1.117 1.462l-.889 8.994H8.35L9.732 6.16a.918.918 0 011.004-.824l13.853 1.139A.742.742 0 0024.735 5L10.88 3.862a2.403 2.403 0 00-2.624 2.152l-1.114 11.28H5.245a2.513 2.513 0 00-2.51 2.511v.651A3.297 3.297 0 00.812 23.45v25.258A3.297 3.297 0 004.107 52H45.45a3.297 3.297 0 003.293-3.293v-7.01h.778c.918 0 1.666-.747 1.666-1.665v-7.908c0-.919-.748-1.666-1.666-1.666zm-4.684-11.681a1.03 1.03 0 011.03 1.028v.378a3.297 3.297 0 00-.416-.027h-3.144l.94-1.38h1.59zM28.652 1.883a.913.913 0 01.76-.402c.183 0 .36.055.515.16l15.085 10.28a.92.92 0 01.242 1.276l-4.742 6.957h-1.138l2.325-3.41a1.732 1.732 0 00.081-1.838 4.14 4.14 0 01-.496-2.556 1.733 1.733 0 00-.75-1.663l-7.82-5.33a1.733 1.733 0 00-1.822-.089 4.142 4.142 0 01-2.56.473 1.754 1.754 0 00-1.681.747l-9.313 13.666H16.2l12.45-18.27zm.326 12.582a6.114 6.114 0 00-6.091 5.69H19.13l8.744-12.832a.265.265 0 01.25-.114 5.634 5.634 0 003.483-.643.261.261 0 01.271.016l7.82 5.33a.262.262 0 01.115.246 5.632 5.632 0 00.675 3.476.263.263 0 01-.014.275l-2.894 4.245h-2.51a6.114 6.114 0 00-6.091-5.689zm4.605 5.69h-9.21a4.631 4.631 0 014.605-4.208 4.63 4.63 0 014.605 4.207zm-29.367-.35a1.03 1.03 0 011.029-1.03h1.751l-.136 1.38H4.216v-.35zm-1.92 3.643c0-1 .812-1.812 1.81-1.812H45.45c1 0 1.812.813 1.812 1.812v2.056H2.295v-2.056zM47.26 48.707c0 .998-.813 1.811-1.812 1.811H4.108a1.813 1.813 0 01-1.812-1.811V46.65h8.964a.74.74 0 100-1.482H2.295V26.987h44.966v3.471h-7.045a5.626 5.626 0 00-5.055 3.167l-.01.019c-.008.015-.014.032-.022.048a5.59 5.59 0 00-.28.716v.002a5.626 5.626 0 005.367 7.287h7.045v3.472H11.035a.74.74 0 100 1.482h36.226v2.056zm2.444-8.675a.184.184 0 01-.184.184h-9.305a4.142 4.142 0 01-3.886-5.56 4.147 4.147 0 013.886-2.716h9.305c.101 0 .184.082.184.184v7.908z"/><path d="M40.39 33.072a3.01 3.01 0 00-3.007 3.006 3.01 3.01 0 003.006 3.006 3.01 3.01 0 003.007-3.006 3.01 3.01 0 00-3.007-3.007zm0 4.53c-.841 0-1.525-.684-1.525-1.524s.684-1.525 1.524-1.525c.841 0 1.525.684 1.525 1.525 0 .84-.684 1.524-1.525 1.524z"/></symbol><symbol viewBox="0 0 20 20" id="whatsapp" xmlns="http://www.w3.org/2000/svg"><path d="M16.328 2.96A9.386 9.386 0 009.582.126C4.34.125.043 4.422.043 9.665a9.55 9.55 0 001.289 4.769L0 19.375l5.027-1.29c1.418.731 2.965 1.161 4.555 1.161 5.285 0 9.668-4.297 9.668-9.539 0-2.578-1.117-4.941-2.922-6.746zM9.582 17.614a7.947 7.947 0 01-4.039-1.117l-.258-.172-3.008.817.817-2.922-.215-.301a8.266 8.266 0 01-1.203-4.254c0-4.34 3.566-7.906 7.949-7.906 2.105 0 4.082.816 5.586 2.32 1.504 1.504 2.406 3.48 2.406 5.629 0 4.34-3.652 7.906-8.035 7.906zm4.383-5.93a53.059 53.059 0 00-1.633-.773c-.215-.086-.387-.129-.559.13-.128.214-.601.773-.73.944-.172.13-.3.172-.516.043-1.418-.687-2.32-1.246-3.265-2.836-.258-.43.258-.386.687-1.289.086-.172.043-.3 0-.43-.043-.128-.558-1.288-.73-1.761-.215-.473-.387-.43-.559-.43h-.43a.806.806 0 00-.644.301c-.215.258-.816.816-.816 1.977 0 1.203.816 2.32.945 2.492.129.129 1.676 2.535 4.082 3.566 1.504.688 2.105.73 2.879.602.43-.043 1.375-.559 1.59-1.117.214-.559.214-1.032.129-1.118-.043-.129-.215-.171-.43-.3z"/></symbol></svg>