<svg width="67" height="67" fill="none" xmlns="http://www.w3.org/2000/svg">
    <path d="M65.279 6.002a8.436 8.436 0 00-6.79-3.383h-1.14v-.654a1.963 1.963 0 00-3.926 0v5.234a1.963 1.963 0 003.925 0v-.654h1.14c1.45 0 2.784.664 3.657 1.821a4.543 4.543 0 01.747 4.017l-5.21 18.233c-1.453 5.089-6.165 8.642-11.457 8.642-5.291 0-10.003-3.553-11.457-8.642l-5.21-18.233a4.543 4.543 0 01.748-4.017 4.542 4.542 0 013.657-1.822h1.14V7.2a1.963 1.963 0 003.925 0V1.964a1.963 1.963 0 00-3.925 0v.655h-1.14a8.437 8.437 0 00-6.79 3.383 8.436 8.436 0 00-1.389 7.459l5.21 18.234a15.722 15.722 0 005.692 8.294c.594.449 1.213.848 1.852 1.204l5.725 13.512v1.417a6.96 6.96 0 01-6.952 6.952 6.96 6.96 0 01-6.953-6.952V42.661c0-6.206-5.048-11.254-11.253-11.254S7.85 36.455 7.85 42.661v4.646C3.377 48.22 0 52.184 0 56.924c0 5.411 4.403 9.814 9.814 9.814 5.412 0 9.814-4.403 9.814-9.814 0-4.74-3.377-8.705-7.851-9.617v-4.646c0-4.041 3.287-7.328 7.328-7.328 4.04 0 7.328 3.287 7.328 7.328v13.461C26.433 62.12 31.313 67 37.31 67s10.877-4.88 10.877-10.878v-1.417l5.725-13.512a16.025 16.025 0 001.852-1.203 15.72 15.72 0 005.692-8.295l5.21-18.234a8.436 8.436 0 00-1.388-7.459zM15.703 56.924a5.895 5.895 0 01-5.889 5.888 5.895 5.895 0 01-5.888-5.888 5.895 5.895 0 015.888-5.889 5.895 5.895 0 015.889 5.889zm30.523-7.649l-2.677-6.317a16.01 16.01 0 005.353 0l-2.676 6.317z" fill="#fff" fill-opacity=".3"/>
    <path d="M9.814 58.886a1.963 1.963 0 100-3.926 1.963 1.963 0 000 3.926z" fill="#fff" fill-opacity=".3"/>
</svg>
