<svg width="17" height="17" fill="none" xmlns="http://www.w3.org/2000/svg">
    <path d="M15.23 0h-4.494c-.851 0-1.652.332-2.254.934L.604 8.812A2.05 2.05 0 000 10.272c0 .55.215 1.068.604 1.458l4.666 4.666c.39.39.907.604 1.46.604.55 0 1.069-.215 1.458-.604l7.878-7.878A3.167 3.167 0 0017 6.264V1.77C17 .795 16.205 0 15.23 0zm1.062 6.264c0 .662-.258 1.285-.726 1.752l-7.878 7.879c-.51.51-1.403.513-1.917 0l-4.666-4.666a1.344 1.344 0 01-.397-.96c0-.36.141-.7.397-.957l7.878-7.878a2.464 2.464 0 011.753-.726h4.493c.586 0 1.063.477 1.063 1.063v4.493z" fill="#11C0AB"/>
    <path d="M13.104 2.125c-.976 0-1.77.795-1.77 1.77 0 .977.794 1.772 1.77 1.772s1.771-.795 1.771-1.771c0-.976-.795-1.771-1.77-1.771zm0 2.833a1.064 1.064 0 01-1.062-1.062c0-.586.476-1.063 1.062-1.063a1.064 1.064 0 010 2.125z" fill="#11C0AB"/>
</svg>
